<?xml version="1.0" encoding="UTF-8" standalone="no"?>
<!-- Created with Inkscape (http://www.inkscape.org/) -->

<svg
   version="1.1"
   id="svg1"
   width="483.05511"
   height="194.41704"
   viewBox="0 0 483.05511 194.41704"
   sodipodi:docname="GSS_Logo_White.svg"
   inkscape:version="1.4.2 (f4327f4, 2025-05-13)"
   xmlns:inkscape="http://www.inkscape.org/namespaces/inkscape"
   xmlns:sodipodi="http://sodipodi.sourceforge.net/DTD/sodipodi-0.dtd"
   xmlns="http://www.w3.org/2000/svg"
   xmlns:svg="http://www.w3.org/2000/svg">
  <defs
     id="defs1" />
  <sodipodi:namedview
     id="namedview1"
     pagecolor="#505050"
     bordercolor="#eeeeee"
     borderopacity="1"
     inkscape:showpageshadow="0"
     inkscape:pageopacity="0"
     inkscape:pagecheckerboard="0"
     inkscape:deskcolor="#505050"
     inkscape:zoom="2.0130446"
     inkscape:cx="227.76445"
     inkscape:cy="118.97401"
     inkscape:window-width="1920"
     inkscape:window-height="1171"
     inkscape:window-x="-9"
     inkscape:window-y="-9"
     inkscape:window-maximized="1"
     inkscape:current-layer="svg1" />
  <g
     inkscape:groupmode="layer"
     id="layer3"
     inkscape:label="TRACE"
     transform="translate(-51.324219,-69.795855)">
    <text
       xml:space="preserve"
       id="text8"
       style="font-style:normal;font-variant:normal;font-weight:normal;font-stretch:normal;font-size:29.4766px;font-family:Outfit;-inkscape-font-specification:'Outfit, @wght=217';font-variant-ligatures:normal;font-variant-caps:normal;font-variant-numeric:normal;font-variant-east-asian:normal;font-variation-settings:'wght' 217;text-align:start;writing-mode:lr-tb;direction:ltr;white-space:pre;shape-inside:url(#rect8);display:inline;fill:#7C7B7B;stroke:#7C7B7B" />
    <g
       id="g43">
      <path
         id="text3"
         style="font-size:32px;font-family:Outfit;-inkscape-font-specification:'Outfit, @wght=245';font-variation-settings:'wght' 245;white-space:pre;fill:#7C7B7B;stroke:#7C7B7B;stroke-width:1"
         d="m 63.033203,241.16016 c -1.593535,0 -3.078838,0.28744 -4.457031,0.86328 -1.356658,0.5545 -2.540625,1.34348 -3.552734,2.36718 -1.01211,1.02371 -1.799485,2.21906 -2.359376,3.58399 -0.55989,1.36494 -0.839843,2.84578 -0.839843,4.44531 0,1.59954 0.279953,3.0942 0.839843,4.48047 0.559891,1.36493 1.335596,2.55833 2.326172,3.58203 1.01211,1.00238 2.196077,1.79136 3.552735,2.36719 1.356658,0.55451 2.82253,0.83203 4.394531,0.83203 2.067289,0 3.875315,-0.43809 5.425781,-1.3125 1.550466,-0.87441 2.755817,-2.15305 3.617188,-3.83789 0.882904,-1.68485 1.324219,-3.74253 1.324219,-6.17383 v -0.32031 H 62.613281 v 1.82422 h 8.59375 c -0.102774,1.49422 -0.44843,2.79465 -1.035156,3.90234 -0.667562,1.30096 -1.626013,2.30206 -2.875,3.00586 -1.248987,0.68247 -2.722621,1.02539 -4.423828,1.02539 -1.744275,0 -3.295686,-0.39449 -4.652344,-1.18359 -1.335124,-0.81044 -2.390783,-1.92054 -3.166015,-3.32813 -0.775234,-1.40759 -1.16211,-3.01727 -1.16211,-4.83008 0,-1.83413 0.386876,-3.45568 1.16211,-4.86328 0.775232,-1.40758 1.852276,-2.51573 3.230468,-3.32617 1.399727,-0.81043 2.982238,-1.21679 4.748047,-1.21679 1.528933,-10e-6 2.907314,0.30924 4.134766,0.92773 1.248987,0.59716 2.261876,1.47138 3.037109,2.62305 L 71.625,245.19141 c -0.947507,-1.27964 -2.174243,-2.27277 -3.681641,-2.97657 -1.485864,-0.70379 -3.122813,-1.05468 -4.910156,-1.05468 z m 40.400387,0 c -1.55046,0 -2.993,0.28744 -4.328121,0.86328 -1.335124,0.57583 -2.497706,1.37669 -3.488281,2.40039 -0.990576,1.0237 -1.766282,2.2171 -2.326172,3.58203 -0.538357,1.34361 -0.808594,2.81453 -0.808594,4.41406 0,1.55689 0.270237,3.02975 0.808594,4.41602 0.55989,1.36493 1.335595,2.5702 2.326172,3.61523 1.01211,1.0237 2.184407,1.82261 3.519531,2.39844 1.356651,0.57583 2.810861,0.86328 4.361331,0.86328 1.55046,0 2.98133,-0.28745 4.29492,-0.86328 1.33512,-0.57583 2.49965,-1.37474 3.49023,-2.39844 0.99058,-1.0237 1.75462,-2.21905 2.29297,-3.58398 0.5599,-1.38627 0.83985,-2.85719 0.83985,-4.41407 0,-1.59953 -0.27995,-3.08232 -0.83985,-4.44726 -0.53835,-1.36493 -1.31406,-2.55833 -2.32617,-3.58203 -0.99058,-1.0237 -2.15316,-1.82456 -3.48828,-2.40039 -1.33513,-0.57584 -2.77766,-0.86328 -4.32813,-0.86328 z m 89.02149,0 c -1.24899,0 -2.3688,0.23393 -3.35938,0.70312 -0.99058,0.44787 -1.76433,1.08816 -2.32422,1.91992 -0.55989,0.83176 -0.83984,1.82295 -0.83984,2.97461 0,1.13034 0.20413,2.05808 0.61328,2.78321 0.40915,0.72512 0.94767,1.32376 1.61524,1.79296 0.66756,0.44788 1.39854,0.83049 2.19531,1.1504 0.8183,0.29858 1.62706,0.5979 2.42383,0.89648 0.79676,0.27725 1.52774,0.6083 2.19531,0.99219 0.66756,0.36256 1.20608,0.83041 1.61523,1.40625 0.40915,0.57583 0.61328,1.33309 0.61328,2.27148 0,1.19433 -0.46269,2.13394 -1.38867,2.81641 -0.90443,0.66114 -2.0884,0.99023 -3.55273,0.99023 -1.39973,0 -2.61675,-0.25572 -3.65039,-0.76758 -1.03365,-0.51184 -1.95905,-1.32262 -2.77735,-2.43164 l -1.38867,1.37696 c 0.92598,1.15166 2.01273,2.05761 3.26172,2.71875 1.24899,0.63981 2.73625,0.95898 4.45899,0.95898 2.17496,0 3.89744,-0.49958 5.16796,-1.50195 1.27052,-1.02371 1.9043,-2.4847 1.9043,-4.38282 0,-1.15166 -0.20413,-2.1012 -0.61328,-2.84765 -0.40915,-0.74645 -0.95738,-1.36494 -1.64648,-1.85547 -0.66756,-0.49053 -1.4005,-0.89689 -2.19727,-1.2168 -0.79677,-0.3199 -1.59386,-0.60735 -2.39063,-0.86328 -0.79676,-0.27725 -1.52774,-0.59642 -2.19531,-0.95898 -0.66756,-0.36256 -1.20608,-0.81057 -1.61523,-1.34375 -0.40915,-0.53318 -0.61328,-1.23692 -0.61328,-2.11133 0,-1.13034 0.40826,-2.01644 1.22656,-2.65625 0.8183,-0.63981 1.89534,-0.95899 3.23047,-0.95899 1.14131,0 2.13086,0.22401 2.9707,0.67188 0.86137,0.42655 1.64874,1.06684 2.35938,1.91992 l 1.38867,-1.34375 c -0.77524,-0.95972 -1.72397,-1.71698 -2.84375,-2.27148 -1.11978,-0.5545 -2.40096,-0.83203 -3.84375,-0.83203 z m 117.91211,0 c -1.59354,0 -3.08079,0.28744 -4.45899,0.86328 -1.35666,0.5545 -2.54062,1.34348 -3.55273,2.36718 -1.01211,1.02371 -1.79753,2.21906 -2.35742,3.58399 -0.55989,1.36494 -0.83985,2.84578 -0.83985,4.44531 0,1.59954 0.27996,3.0942 0.83985,4.48047 0.55989,1.36493 1.3356,2.55833 2.32617,3.58203 1.01211,1.00238 2.19607,1.79136 3.55273,2.36719 1.35666,0.55451 2.82058,0.83203 4.39258,0.83203 2.06729,0 3.87532,-0.43809 5.42578,-1.3125 1.55047,-0.87441 2.75778,-2.15305 3.61914,-3.83789 0.88291,-1.68485 1.32422,-3.74253 1.32422,-6.17383 v -0.32031 h -10.6914 v 1.82422 h 8.59179 c -0.10277,1.49422 -0.44647,2.79465 -1.0332,3.90234 -0.66756,1.30096 -1.62601,2.30206 -2.875,3.00586 -1.24899,0.68247 -2.72458,1.02539 -4.42578,1.02539 -1.74428,0 -3.29569,-0.39449 -4.65235,-1.18359 -1.33512,-0.81044 -2.38882,-1.92054 -3.16406,-3.32813 -0.77523,-1.40759 -1.16406,-3.01727 -1.16406,-4.83008 0,-1.83413 0.38883,-3.45568 1.16406,-4.86328 0.77524,-1.40758 1.85228,-2.51573 3.23047,-3.32617 1.39973,-0.81043 2.98223,-1.21679 4.74805,-1.21679 1.52893,-10e-6 2.90731,0.30924 4.13476,0.92773 1.24899,0.59716 2.25993,1.47138 3.03516,2.62305 l 1.42187,-1.40625 c -0.9475,-1.27964 -2.17619,-2.27277 -3.68359,-2.97657 -1.48587,-0.70379 -3.12086,-1.05468 -4.9082,-1.05468 z m 32.62304,0 c -1.572,0 -3.03592,0.28744 -4.39257,0.86328 -1.33513,0.57583 -2.49771,1.37669 -3.48828,2.40039 -0.99059,1.0237 -1.76629,2.2171 -2.32618,3.58203 -0.53836,1.36494 -0.80664,2.83586 -0.80664,4.41406 0,1.57822 0.26828,3.05108 0.80664,4.41602 0.55989,1.36493 1.34726,2.5702 2.35938,3.61523 1.0121,1.0237 2.19607,1.82261 3.55273,2.39844 1.35666,0.57583 2.82058,0.86328 4.39258,0.86328 1.67967,0 3.19803,-0.29737 4.55469,-0.89453 1.37819,-0.61849 2.56215,-1.45107 3.55273,-2.49609 l -1.38867,-1.375 c -0.77523,0.87441 -1.74535,1.56627 -2.9082,2.07812 -1.14132,0.51185 -2.43221,0.76953 -3.875,0.76953 -1.29206,0 -2.48769,-0.224 -3.58594,-0.67187 -1.07671,-0.4692 -2.0235,-1.13129 -2.8418,-1.98438 -0.79676,-0.85308 -1.42082,-1.84427 -1.87304,-2.97461 -0.45222,-1.15166 -0.67969,-2.40052 -0.67969,-3.74414 0,-1.3436 0.2158,-2.5806 0.64648,-3.71094 0.45222,-1.13034 1.08795,-2.10964 1.90625,-2.9414 0.8183,-0.85309 1.76509,-1.51518 2.8418,-1.98438 1.07671,-0.4692 2.26067,-0.70312 3.55273,-0.70312 1.37819,0 2.63798,0.25572 3.7793,0.76758 1.14131,0.49052 2.09977,1.18237 2.875,2.07812 l 1.38867,-1.375 c -1.0121,-1.06635 -2.19607,-1.89698 -3.55273,-2.49414 -1.33513,-0.59716 -2.8321,-0.89648 -4.49024,-0.89648 z m 26.03516,0 c -1.24899,0 -2.3688,0.23393 -3.35937,0.70312 -0.99058,0.44787 -1.76629,1.08816 -2.32618,1.91992 -0.55989,0.83176 -0.83984,1.82295 -0.83984,2.97461 0,1.13034 0.20608,2.05808 0.61523,2.78321 0.40915,0.72512 0.94767,1.32376 1.61524,1.79296 0.66756,0.44788 1.39854,0.83049 2.19531,1.1504 0.8183,0.29858 1.62706,0.5979 2.42383,0.89648 0.79677,0.27725 1.52775,0.6083 2.19531,0.99219 0.66756,0.36256 1.20608,0.83041 1.61524,1.40625 0.40914,0.57583 0.61328,1.33309 0.61328,2.27148 0,1.19433 -0.4627,2.13394 -1.38867,2.81641 -0.90444,0.66114 -2.08841,0.99023 -3.55274,0.99023 -1.39973,0 -2.61675,-0.25572 -3.65039,-0.76758 -1.03365,-0.51184 -1.95904,-1.32262 -2.77734,-2.43164 l -1.38868,1.37696 c 0.92598,1.15166 2.01274,2.05761 3.26172,2.71875 1.24899,0.63981 2.7343,0.95898 4.45704,0.95898 2.17496,0 3.89744,-0.49958 5.16796,-1.50195 1.27052,-1.02371 1.90625,-2.4847 1.90625,-4.38282 0,-1.15166 -0.20412,-2.1012 -0.61328,-2.84765 -0.40914,-0.74645 -0.95738,-1.36494 -1.64648,-1.85547 -0.66756,-0.49053 -1.4005,-0.89689 -2.19727,-1.2168 -0.79676,-0.3199 -1.59386,-0.60735 -2.39062,-0.86328 -0.79677,-0.27725 -1.52775,-0.59642 -2.19532,-0.95898 -0.66756,-0.36256 -1.20608,-0.81057 -1.61523,-1.34375 -0.40915,-0.53318 -0.61523,-1.23692 -0.61523,-2.11133 0,-1.13034 0.41021,-2.01644 1.22851,-2.65625 0.8183,-0.63981 1.89534,-0.95899 3.23047,-0.95899 1.14131,0 2.13086,0.22401 2.9707,0.67188 0.86137,0.42655 1.64679,1.06684 2.35743,1.91992 l 1.39062,-1.34375 c -0.77523,-0.95972 -1.72396,-1.71698 -2.84375,-2.27148 -1.11978,-0.5545 -2.40096,-0.83203 -3.84375,-0.83203 z m 21.22461,0 c -1.55047,0 -2.99301,0.28744 -4.32812,0.86328 -1.33513,0.57583 -2.49771,1.37669 -3.48829,2.40039 -0.99058,1.0237 -1.76628,2.2171 -2.32617,3.58203 -0.53836,1.34361 -0.80664,2.81453 -0.80664,4.41406 0,1.55689 0.26828,3.02975 0.80664,4.41602 0.55989,1.36493 1.33559,2.5702 2.32617,3.61523 1.01211,1.0237 2.18636,1.82261 3.52149,2.39844 1.35665,0.57583 2.80891,0.86328 4.35937,0.86328 1.55047,0 2.98328,-0.28745 4.29688,-0.86328 1.33512,-0.57583 2.4977,-1.37474 3.48828,-2.39844 0.99057,-1.0237 1.75461,-2.21905 2.29297,-3.58398 0.55988,-1.38627 0.83984,-2.85719 0.83984,-4.41407 0,-1.59953 -0.27996,-3.08232 -0.83984,-4.44726 -0.53836,-1.36493 -1.31407,-2.55833 -2.32617,-3.58203 -0.99058,-1.0237 -2.15316,-1.82456 -3.48829,-2.40039 -1.33512,-0.57584 -2.77765,-0.86328 -4.32812,-0.86328 z m 92.48242,0 c -1.55046,0 -2.993,0.28744 -4.32812,0.86328 -1.33512,0.57583 -2.4977,1.37669 -3.48828,2.40039 -0.99058,1.0237 -1.76628,2.2171 -2.32618,3.58203 -0.53835,1.34361 -0.80859,2.81453 -0.80859,4.41406 0,1.55689 0.27024,3.02975 0.80859,4.41602 0.5599,1.36493 1.3356,2.5702 2.32618,3.61523 1.01211,1.0237 2.18441,1.82261 3.51953,2.39844 1.35666,0.57583 2.81086,0.86328 4.36133,0.86328 1.55046,0 2.98132,-0.28745 4.29492,-0.86328 1.33512,-0.57583 2.49966,-1.37474 3.49023,-2.39844 0.99058,-1.0237 1.75462,-2.21905 2.29297,-3.58398 0.55989,-1.38627 0.83984,-2.85719 0.83984,-4.41407 0,-1.59953 -0.27995,-3.08232 -0.83984,-4.44726 -0.53835,-1.36493 -1.31406,-2.55833 -2.32617,-3.58203 -0.99058,-1.0237 -2.15316,-1.82456 -3.48828,-2.40039 -1.33512,-0.57584 -2.77766,-0.86328 -4.32813,-0.86328 z m 44.28516,0 c -1.24899,0 -2.3688,0.23393 -3.35938,0.70312 -0.99057,0.44787 -1.76628,1.08816 -2.32617,1.91992 -0.55989,0.83176 -0.83984,1.82295 -0.83984,2.97461 0,1.13034 0.20413,2.05808 0.61328,2.78321 0.40915,0.72512 0.94767,1.32376 1.61523,1.79296 0.66756,0.44788 1.4005,0.83049 2.19727,1.1504 0.81831,0.29858 1.62511,0.5979 2.42187,0.89648 0.79677,0.27725 1.52971,0.6083 2.19727,0.99219 0.66757,0.36256 1.20609,0.83041 1.61523,1.40625 0.40916,0.57583 0.61328,1.33309 0.61328,2.27148 10e-6,1.19433 -0.46269,2.13394 -1.38867,2.81641 -0.90444,0.66114 -2.0884,0.99023 -3.55273,0.99023 -1.39973,0 -2.61675,-0.25572 -3.65039,-0.76758 -1.03365,-0.51184 -1.961,-1.32262 -2.7793,-2.43164 l -1.38867,1.37696 c 0.92597,1.15166 2.01468,2.05761 3.26367,2.71875 1.24899,0.63981 2.73429,0.95898 4.45703,0.95898 2.17496,0 3.89745,-0.49958 5.16797,-1.50195 1.27053,-1.02371 1.90625,-2.4847 1.90625,-4.38282 0,-1.15166 -0.20413,-2.1012 -0.61328,-2.84765 -0.40915,-0.74645 -0.95934,-1.36494 -1.64844,-1.85547 -0.66756,-0.49053 -1.39854,-0.89689 -2.19531,-1.2168 -0.79677,-0.3199 -1.59386,-0.60735 -2.39063,-0.86328 -0.79676,-0.27725 -1.5297,-0.59642 -2.19726,-0.95898 -0.66756,-0.36256 -1.20608,-0.81057 -1.61524,-1.34375 -0.40915,-0.53318 -0.61328,-1.23692 -0.61328,-2.11133 0,-1.13034 0.40826,-2.01644 1.22657,-2.65625 0.8183,-0.63981 1.89535,-0.95899 3.23047,-0.95899 1.14132,0 2.13282,0.22401 2.97265,0.67188 0.86137,0.42655 1.6468,1.06684 2.35742,1.91992 l 1.38867,-1.34375 c -0.77523,-0.95972 -1.72201,-1.71698 -2.84179,-2.27148 -1.11978,-0.5545 -2.40095,-0.83203 -3.84375,-0.83203 z m -449.125002,0.32031 v 21.91406 h 1.291016 0.710937 11.628907 v -1.82422 H 79.894531 v -20.08984 z m 41.302732,0 v 21.91406 h 1.22852 0.77539 6.26562 c 1.5074,0 2.80024,-0.25768 3.87696,-0.76953 1.07671,-0.53318 1.9049,-1.25676 2.48632,-2.17383 0.58143,-0.91706 0.87305,-1.97365 0.87305,-3.16797 0,-1.40759 -0.41021,-2.61285 -1.22851,-3.61523 -0.67119,-0.83966 -1.55826,-1.4781 -2.66407,-1.91602 0.78987,-0.41051 1.41837,-0.93374 1.88868,-1.57031 0.64602,-0.89574 0.9707,-1.96224 0.9707,-3.19922 0,-1.06636 -0.25857,-2.00402 -0.77539,-2.81445 -0.49529,-0.83175 -1.21656,-1.48393 -2.16406,-1.95313 -0.94751,-0.49052 -2.10038,-0.73437 -3.45704,-0.73437 h -6.07226 -0.77539 z m 27.58594,0 -9.01172,21.91406 h 2.09961 l 2.49219,-6.11133 h 10.31445 l 2.47266,6.11133 h 2.16406 l -8.98047,-21.91406 z m 14.53516,0 v 21.91406 h 1.29297 0.71093 11.62891 v -1.82422 h -11.62891 v -20.08984 z m 39.7832,0 v 1.82226 h 7.94727 v 20.0918 h 2.03515 v -20.0918 h 7.94531 v -1.82226 z m 22.16016,0 v 21.91406 h 2.00195 v -9.91797 h 3.57617 l 8.11719,9.91797 h 2.58398 l -8.24804,-9.91992 c 1.36377,-0.02 2.531,-0.26474 3.5,-0.73438 1.03364,-0.51185 1.81906,-1.21558 2.35742,-2.11132 0.53836,-0.89574 0.80859,-1.94045 0.80859,-3.13477 0,-1.17299 -0.27023,-2.20778 -0.80859,-3.10352 -0.53836,-0.91706 -1.32378,-1.63072 -2.35742,-2.14257 -1.01211,-0.51186 -2.23884,-0.76758 -3.68164,-0.76758 h -5.84766 -0.77539 z m 26.71289,0 -9.01172,21.91406 h 2.09961 l 2.49218,-6.11133 h 10.3125 l 2.47266,6.11133 h 2.16406 l -8.97851,-21.91406 z m 9.63476,0 v 1.82226 h 7.94531 v 20.0918 h 2.03516 v -20.0918 h 7.94531 v -1.82226 z m 22.1582,0 v 21.91406 h 1.29102 0.71094 12.46875 v -1.82422 h -12.46875 v -8.54101 h 11.43554 v -1.72852 h -11.43554 v -7.99805 h 12.27539 v -1.82226 h -12.27539 -0.71094 z m 43.45899,0 v 21.91406 h 2.00391 v -21.91406 z m 80.78906,0 v 21.91406 h 1.29102 0.71093 11.62891 v -1.82422 h -11.62891 v -20.08984 z m 16.86133,0 v 14.17187 c 0,1.53556 0.35578,2.91131 1.06641,4.12696 0.73216,1.21565 1.712,2.17511 2.93945,2.8789 1.24899,0.7038 2.65847,1.05469 4.23047,1.05469 1.55046,0 2.94051,-0.35089 4.16797,-1.05469 1.24898,-0.70379 2.22882,-1.65333 2.93945,-2.84765 0.71063,-1.21565 1.06445,-2.5914 1.06445,-4.12696 v -14.20312 h -2.00195 v 14.07617 c 0,1.2583 -0.27023,2.35653 -0.80859,3.29492 -0.53836,0.9384 -1.26934,1.66198 -2.19532,2.17383 -0.92597,0.51185 -1.99134,0.76953 -3.19726,0.76953 -1.16285,0 -2.2185,-0.25768 -3.16602,-0.76953 -0.92596,-0.51185 -1.66862,-1.23543 -2.22851,-2.17383 -0.53836,-0.93839 -0.8086,-2.0485 -0.8086,-3.32812 v -14.04297 z m 19.99609,0 v 1.82226 h 7.94727 v 20.0918 h 2.03516 v -20.0918 h 7.94531 v -1.82226 z m 22.16016,0 v 21.91406 h 2.00195 v -21.91406 z m 33.46289,0 v 21.91406 h 2.00391 v -18.03125 l 13.27539,18.03125 h 1.42187 v -21.91406 h -2.0039 v 18.0293 l -13.27539,-18.0293 z m -395.06055,1.59961 c 1.29206,0 2.47602,0.23392 3.55274,0.70312 1.07671,0.4692 2.01378,1.13129 2.81055,1.98438 0.8183,0.83176 1.44236,1.81106 1.87304,2.9414 0.45222,1.13034 0.67774,2.36734 0.67774,3.71094 0,1.79149 -0.38688,3.40311 -1.16211,4.83203 -0.77524,1.40759 -1.8309,2.51574 -3.16602,3.32617 -1.33513,0.81044 -2.8632,1.2168 -4.58594,1.2168 -1.27052,0 -2.45448,-0.23588 -3.552731,-0.70508 -1.076712,-0.46919 -2.013779,-1.11941 -2.810547,-1.95117 -0.796767,-0.85308 -1.420827,-1.85614 -1.873046,-3.00781 -0.430686,-1.15167 -0.646485,-2.38865 -0.646485,-3.71094 0,-1.8128 0.377161,-3.41061 1.13086,-4.79687 0.775233,-1.40759 1.828938,-2.51769 3.164062,-3.32813 1.335127,-0.81043 2.865147,-1.21484 4.587887,-1.21484 z m 286.81641,0 c 1.29205,0 2.47602,0.23392 3.55273,0.70312 1.07672,0.4692 2.01378,1.13129 2.81055,1.98438 0.81831,0.83176 1.44237,1.81106 1.87305,2.9414 0.45222,1.13034 0.67969,2.36734 0.67969,3.71094 0,1.79149 -0.38883,3.40311 -1.16407,4.83203 -0.77523,1.40759 -1.82894,2.51574 -3.16406,3.32617 -1.33513,0.81044 -2.86515,1.2168 -4.58789,1.2168 -1.27052,0 -2.45449,-0.23588 -3.55273,-0.70508 -1.07672,-0.46919 -2.01378,-1.11941 -2.81055,-1.95117 -0.79677,-0.85308 -1.42083,-1.85614 -1.87305,-3.00781 -0.43068,-1.15167 -0.64648,-2.38865 -0.64648,-3.71094 0,-1.8128 0.37716,-3.41061 1.13086,-4.79687 0.77523,-1.40759 1.83089,-2.51769 3.16601,-3.32813 1.33512,-0.81043 2.8632,-1.21484 4.58594,-1.21484 z m 92.48242,0 c 1.29206,0 2.47602,0.23392 3.55274,0.70312 1.07671,0.4692 2.01378,1.13129 2.81054,1.98438 0.8183,0.83176 1.44236,1.81106 1.87305,2.9414 0.45222,1.13034 0.67773,2.36734 0.67773,3.71094 0,1.79149 -0.38687,3.40311 -1.1621,4.83203 -0.77524,1.40759 -1.8309,2.51574 -3.16602,3.32617 -1.33513,0.81044 -2.8632,1.2168 -4.58594,1.2168 -1.27052,0 -2.45449,-0.23588 -3.55273,-0.70508 -1.07672,-0.46919 -2.01378,-1.11941 -2.81055,-1.95117 -0.79677,-0.85308 -1.42083,-1.85614 -1.87305,-3.00781 -0.43068,-1.15167 -0.64648,-2.38865 -0.64648,-3.71094 0,-1.8128 0.37716,-3.41061 1.13086,-4.79687 0.77523,-1.40759 1.82894,-2.51769 3.16406,-3.32813 1.33513,-0.81043 2.86515,-1.21484 4.58789,-1.21484 z m -361.5332,0.16015 h 6.04101 c 1.33512,0 2.4005,0.34097 3.19727,1.02344 0.81831,0.68247 1.22656,1.64193 1.22656,2.87891 0,1.21565 -0.36549,2.16519 -1.09765,2.84765 -0.73217,0.68247 -1.73339,1.02344 -3.00391,1.02344 h -6.36328 z m 104.0625,0 h 5.91211 c 1.55046,0 2.73443,0.39449 3.55273,1.1836 0.8183,0.7891 1.22657,1.81201 1.22656,3.07031 0,1.30096 -0.41993,2.34567 -1.25976,3.13477 -0.81831,0.76778 -2.00227,1.15234 -3.55274,1.15234 h -5.8789 z m 25.46875,1.34375 4.42383,10.93946 h -8.88477 z m -103.19141,0.004 4.42578,10.93555 h -8.88476 z m -26.33984,8.15234 h 6.68555 c 0.94751,0 1.77765,0.19228 2.48828,0.57618 0.73216,0.38388 1.29207,0.91714 1.67968,1.59961 0.40916,0.66114 0.61329,1.41839 0.61329,2.27148 0,1.30096 -0.45299,2.36746 -1.35743,3.19922 -0.90444,0.83176 -2.13117,1.24805 -3.68164,1.24805 h -6.42773 z" />
      <path
         id="path8"
         style="display:inline;fill:#7C7B7B;stroke:#7C7B7B"
         d="m 180.97656,70.296875 c -11.61674,0 -22.39275,1.080481 -32.32812,4.832031 -9.78252,3.751551 -18.34085,9.826397 -25.67774,16.634766 -7.33689,6.808369 -13.07026,14.728248 -17.19726,23.759768 -4.127,8.89256 -6.189456,18.54973 -6.189456,28.9707 0,10.42097 2.062456,20.14817 6.189456,29.17969 4.127,9.03151 9.78275,16.9514 16.96679,23.75976 7.33689,6.80837 15.82151,12.15639 25.45118,16.04688 9.78251,3.75155 20.25197,5.62891 31.41015,5.62891 14.82663,0 27.97166,-2.85008 39.43555,-8.54688 11.61674,-5.6968 20.63491,-14.17113 27.05469,-25.42578 6.57262,-11.3936 8.02655,-23.6297 8.79882,-34.44336 l 0.44141,-6.1875 -59.48047,-0.17774 v 18.10157 l 26.02539,0.043 11.83399,0.0293 c -1.14906,6.55734 -2.23779,10.2979 -5.875,15.59766 -2.57656,2.99529 -11.10733,13.37708 -19.36133,17.26758 -0.90465,0.43444 -1.83455,0.83092 -2.78711,1.19336 l -0.18555,-0.33789 -0.48633,-0.79688 -0.13085,-1.54687 c 0,0 0.35228,-1.28026 0.39648,-1.45703 0.0442,-0.17678 0.92773,-0.53126 0.92773,-0.53126 0,1e-5 0.61864,-0.57467 0.70704,-0.83984 0.0884,-0.26516 0.0898,-1.19336 0.0898,-1.19336 l 1.32617,-0.92773 c 0,0 0.13086,-0.88423 0.13086,-1.32617 0,-0.44194 0.83984,-1.19336 0.83984,-1.19336 l 1.15039,-0.57422 0.043,-1.36914 1.01758,-1.63477 c 0,0 0.0882,-1.54829 -0.13281,-1.99023 -0.22097,-0.44194 -0.39844,-0.83985 -0.39844,-0.83985 0,0 -0.83858,-0.53002 -1.23633,-0.57422 -0.39775,-0.0442 -0.83949,0.17774 -1.76757,0.17774 -0.92808,0 -1.01682,-5.1e-4 -1.32618,0.0879 -0.30936,0.0884 -1.99023,-0.5293 -1.99023,-0.5293 l -0.88281,-0.83984 c 0,0 -1.85666,-1.15012 -2.16602,-1.3711 -0.30936,-0.22096 -1.41402,-0.61788 -1.76758,-1.01562 -0.35355,-0.39775 0.0442,-0.44309 0,-0.66406 -0.0442,-0.22097 -0.48632,-1.50196 -0.48632,-1.50196 0,0 -1.19355,-0.48678 -1.67969,-0.75195 -0.48614,-0.26516 -0.74974,-0.66306 -0.97071,-0.83984 -0.22097,-0.17678 -1.59225,-0.61815 -1.85742,-0.79492 -0.26516,-0.17678 -1.36887,-0.35301 -1.58984,-0.44141 -0.22097,-0.0884 -1.72461,-1.10547 -1.72461,-1.10547 0,0 -2.07637,-0.48534 -2.5625,-0.66211 -0.48614,-0.17678 -0.88446,-0.35496 -1.45899,-0.44336 -0.57453,-0.0884 -1.81123,-0.30808 -2.20898,-0.39648 -0.39775,-0.0884 -1.50337,-0.13377 -1.94531,-0.31055 -0.44194,-0.17678 -1.36914,-0.44141 -1.36914,-0.44141 l -2.25391,0.35352 -1.67969,0.13281 c 0,0 -0.57441,0.1777 -1.06054,0.53125 -0.48614,0.35356 -1.32617,0.17578 -1.32617,0.17578 -1e-5,0 -0.39844,1.2373 -0.39844,1.41407 0,0.17678 0.13281,1.32617 0.13281,1.32617 l -0.5293,-0.17578 c 0,0 -0.57464,-0.13305 -1.19336,-0.26563 -0.61872,-0.13259 -0.88476,-0.70703 -0.88476,-0.70703 l -1.19336,-0.17773 c 0,0 -0.97289,-0.88377 -1.10547,-1.06055 -0.13258,-0.17677 -0.57422,-0.66211 -0.57422,-0.66211 0,0 -0.0112,-1.10502 -0.0664,-1.22656 -0.0553,-0.12153 -0.41941,-0.75152 -0.47461,-0.87305 -0.0552,-0.12154 -0.0879,-0.59721 -0.0879,-0.71875 0,-0.12153 0.0762,-0.67383 0.0762,-0.67383 0,0 -0.3574,-1.41411 -0.4043,-1.50781 -0.0469,-0.0937 -0.21875,-0.51563 -0.21875,-0.625 0,-0.10938 -0.125,-0.5625 -0.26562,-0.625 -0.14063,-0.0625 -1.28126,-0.46877 -1.40626,-0.48437 -0.125,-0.0157 -0.85937,-0.0469 -1.23437,-0.0469 -0.375,0 -0.71875,0.0469 -0.78125,0.0312 h -0.002 c -0.0771,-0.0372 -0.63921,-0.75195 -0.66993,-0.875 -0.0313,-0.125 -0.0313,-0.48437 0.0156,-0.76563 0.0469,-0.28124 -0.0937,-1.1875 -0.20313,-1.32812 -0.10937,-0.1406 -0.75,-0.0156 -0.85937,-0.0156 h -0.002 c -0.11624,0.0232 -0.50243,0.77074 -0.7793,1.09374 -0.28125,0.32815 -0.28125,0.0938 -0.39062,0.0469 -0.10938,-0.0469 -0.59376,-0.37498 -0.8125,-0.35938 -0.21876,0.0156 -1.04688,-0.0781 -1.04688,-0.0781 0,0 -0.4844,-0.40625 -0.5,-0.65625 -0.0154,-0.24609 -1.01462,-0.5989 -1.10547,-0.58008 l -0.002,0.002 h -0.002 c -0.0625,0.0312 -0.28124,0.0625 -0.5625,0.0938 -0.28124,0.0312 -0.9375,-0.17188 -0.9375,-0.17188 0,0 -0.2656,-0.42188 -0.25,-0.54688 0.0156,-0.125 -0.57812,-0.71874 -0.57812,-0.71874 0,0 -0.67185,-0.5625 -0.71875,-0.625 -0.0469,-0.0625 -0.42185,-0.56251 -0.46875,-0.67188 -0.0469,-0.10938 -0.25,-1.0625 -0.25,-1.17188 v -0.98437 c 0,-0.125 0.0312,-1.0625 0.0312,-1.0625 0,0 0.42192,-0.78125 0.51563,-0.96875 0.0937,-0.1875 0.34377,-0.67188 0.42187,-0.92188 0.0781,-0.25 0.23442,-0.84374 0.26563,-1 0.0312,-0.15624 0.65624,-0.62504 0.8125,-0.71874 0.15624,-0.0938 0.42187,-0.26563 0.75,-0.375 0.32812,-0.10938 0.84377,-0.79688 0.92187,-0.92188 0.0781,-0.12498 0.28125,-0.0782 0.54687,-0.17188 0.26563,-0.0937 0.95313,-0.26557 1.1875,-0.23437 0.22706,0.0303 0.87971,-0.11568 0.9629,-0.18164 0.001,-0.001 0.005,-0.005 0.006,-0.006 0.0469,-0.0625 0.67187,-0.60937 0.84374,-0.73437 0.17188,-0.12499 0.85938,0.0469 0.85938,0.0469 0,0 1.3125,-0.2188 1.42188,-0.25 0.10937,-0.0312 0.45314,-0.25002 0.53124,-0.26563 0.0781,-0.0156 0.65626,-0.17192 0.71876,-0.20312 0.0625,-0.0312 0.40624,-0.26567 0.73437,-0.29688 0.32812,-0.0313 0.45313,-0.0938 0.57813,-0.10937 0.125,-0.0157 0.70312,0.12495 0.85937,0.0937 0.15622,-0.0312 0.12502,0.125 0.20313,0.25 0.0781,0.125 0.37499,0.42192 0.48437,0.45312 0.10937,0.0312 0.4375,5e-5 0.57813,0.0313 0.14062,0.0312 0.73437,-0.0625 0.85937,-0.10938 0.125,-0.0469 0.5625,0.10938 0.5625,0.10938 0,0 0.23442,0.42187 0.26563,0.48437 0.0312,0.0625 0.17187,0.45313 0.23437,0.6875 0.0625,0.23438 0.0469,0.6875 0.0469,0.8125 0,0.125 0.10938,0.60937 0.10938,0.73437 0,0.12501 0.0469,0.375 0.17188,0.5625 0.125,0.1875 0.42187,0.625 0.42187,0.625 l 0.32813,0.46876 c 0,0 0.53003,0.54472 0.62109,0.54687 h 0.002 0.002 0.002 l 0.002,-0.002 h 0.002 c 0.0884,-0.0637 0.36914,-0.85743 0.36915,-0.85742 l -0.0156,-0.95313 -0.0937,-0.625 C 173.0416,148.20469 173,147.4375 173,147.375 c 0,-0.0625 -0.13477,-1.44676 -0.13477,-1.53516 0,-0.0884 0.0228,-0.35251 0.0449,-0.52929 0.0221,-0.17677 0.1323,-0.44236 0.2207,-0.61914 0.0884,-0.17677 0.2207,-0.61914 0.2207,-0.61914 l 0.5293,-0.13282 c 0,0 0.22132,-0.64035 0.19922,-0.86133 -0.0221,-0.22096 0,-0.5737 0,-0.6621 0.01,-0.0969 0.61914,-0.77344 0.61914,-0.77344 l 0.92773,-0.0449 0.31055,-0.48633 -0.31055,-1.28125 c 0,0 0.64207,-0.39844 0.73047,-0.39844 h 0.002 0.002 c 0.11887,-0.0484 0.90039,-1.08203 0.90039,-1.08203 l 0.64062,-0.88281 c 0,0 0.48778,-0.73058 0.57618,-0.79688 0.0884,-0.0663 0.24303,-0.3303 0.35351,-0.46289 0.11049,-0.13258 0.61803,-0.72996 0.72852,-0.81836 0.11048,-0.0884 0.10959,-0.57456 0.24218,-0.77344 0.13258,-0.19887 0.68555,0 0.68555,0 0,0 0.19922,-0.68444 0.19922,-0.79492 0,-0.11049 0.66211,-1.12695 0.66211,-1.12695 0,0 0.8192,-0.55284 0.92969,-0.61914 0.11049,-0.0663 0.94922,-0.92774 0.94922,-0.92774 0,0 0.55296,-0.79576 0.68554,-0.90625 0.13259,-0.11049 1.16992,-0.90625 1.16992,-0.90625 l 0.83985,-0.86132 c 0,0 0.70925,-0.60987 0.79101,-0.62891 h 0.002 0.002 c 0.0625,0 0.53125,-0.10935 0.64063,-0.15625 0.10937,-0.0469 0.56252,-0.5156 0.64062,-0.5625 0.0781,-0.0469 0.5,-0.17187 0.5,-0.17188 l 0.3125,-0.26562 0.40625,-0.64062 0.48437,-0.10938 c 0,0 0.45313,-0.875 0.45313,-1.07812 0,-0.20314 -0.10937,-0.82813 -0.10937,-0.89063 0,-0.0625 0.35937,-0.98438 0.35937,-0.98437 l 0.66602,-0.56641 c 0,0 1.12718,-0.22143 1.25976,-0.26563 0.13259,-0.0442 0.59655,-0.13291 0.70703,-0.19922 0.11049,-0.0663 0.41992,-0.5957 0.41992,-0.5957 l 0.95118,0.043 1.16992,-0.35351 0.90625,-0.66211 0.88476,0.15429 1.10547,-0.97265 -0.13281,-1.08203 -0.11133,-1.06055 -0.68554,-0.44141 -0.41993,-0.73047 c 0,0 -0.50802,-0.7059 -0.60742,-0.7832 -0.0994,-0.0773 -0.36349,-0.3759 -0.46289,-0.51953 -0.0994,-0.14364 -0.27683,-0.79588 -0.36523,-0.97266 -0.0884,-0.17677 -0.3529,-1.03917 -0.375,-1.10547 -0.0221,-0.0663 -0.1875,-0.83984 -0.1875,-0.83984 0,0 -0.64081,-1.24953 -0.79493,-1.31836 -10e-4,-4e-4 -0.005,-0.002 -0.006,-0.002 -0.13842,-0.0307 -0.92911,0.74889 -1.08789,0.76562 -0.001,4e-5 -0.005,6e-5 -0.006,0 -0.57813,-0.25777 -1.09376,-0.23437 -1.09376,-0.23437 1e-5,0 -0.96873,-0.14848 -1.02343,-0.17188 -0.0547,-0.0234 -0.21092,-0.1797 -0.25781,-0.25 -0.0469,-0.0703 -0.0859,-0.28125 -0.14063,-0.47656 -0.0546,-0.19531 -0.0234,-0.67188 -0.0234,-0.88281 0,-0.21094 0.0312,-0.5313 0.14844,-0.625 l 0.002,-0.002 c 0.0975,-0.12484 -0.36139,-1.26438 -0.35351,-1.31054 v -0.002 -0.002 h -0.002 l -0.002,-0.002 h -0.002 c -0.0707,-0.0149 -0.56445,0.12304 -0.56445,0.12304 l -0.77344,0.19532 -0.45313,-0.27344 -0.22656,-0.51562 -0.21289,-0.0527 c 0,0 -0.62963,-0.25488 -0.67383,-0.27148 -0.0442,-0.0166 -0.625,-0.30274 -0.625,-0.30274 l -0.44141,-0.31445 c 1e-5,0 -0.28544,0.13857 -0.31835,0.1875 -4e-4,7.4e-4 -0.002,0.005 -0.002,0.006 -0.0166,0.0442 -0.15013,0.14915 -0.17773,0.16015 -0.0276,0.011 -0.46911,0.44738 -0.50781,0.51368 -0.0538,0.0686 -0.59658,0.24307 -0.6836,0.2539 -0.0884,0.011 -0.61328,0.50196 -0.61328,0.50196 0,0 -0.48658,0.81641 -0.49414,0.92382 v 0.002 0.002 c 0.008,0.0859 -0.0779,0.77344 -0.0859,0.94531 -0.008,0.17188 -0.15628,0.8125 -0.17969,0.95313 -0.0234,0.14062 -0.15628,1 -0.17968,1.22656 -0.0235,0.22656 -0.0938,0.96094 -0.11719,1.19531 -0.0234,0.23438 -0.13284,0.75005 -0.14844,0.84375 -0.0156,0.0937 -0.40628,0.89068 -0.42969,0.92188 -0.0234,0.0312 -0.67559,0.66019 -0.68359,0.67969 -0.008,0.0195 -0.18755,0.26953 -0.21875,0.33203 -0.0312,0.0625 -0.25784,0.59762 -0.27734,0.64062 -0.0195,0.043 -0.37893,0.51956 -0.39063,0.53906 -0.0117,0.0195 -0.3164,0.75391 -0.3164,0.75391 l -0.58985,0.19531 -0.8164,-0.0312 -1.04297,-0.27344 c 0,0 -0.36719,-0.19137 -0.48438,-0.23437 -0.11719,-0.043 -0.28902,-0.19918 -0.32812,-0.23828 -0.0391,-0.0391 -0.50393,-0.25784 -0.51563,-0.27344 -0.0117,-0.0156 -0.52344,-0.19922 -0.52344,-0.19922 1e-5,0 -0.55078,-0.37502 -0.55078,-0.39062 0,-0.0156 -0.97265,-0.3711 -0.97265,-0.3711 l -0.28516,-0.35156 -0.27344,-0.20703 c 0,0 -0.27148,-0.82176 -0.27148,-0.91016 0,-0.0884 0.0439,-0.22055 0.0605,-0.31445 0.0166,-0.0939 0.0156,-0.38682 0.0156,-0.41992 0,-0.0331 -0.0215,-0.32078 -0.0215,-0.39258 0,-0.0718 -0.10547,-0.39844 -0.10547,-0.39844 l -0.55664,-0.16601 -0.31055,-0.17578 -0.41992,-0.42578 c 0,0 -0.44151,-0.30932 -0.47461,-0.35352 l -0.002,-0.002 c -0.0593,-0.0564 -0.5293,-0.31836 -0.5293,-0.31836 0,0 -0.55162,-0.29832 -0.66211,-0.35352 -0.11048,-0.0553 -0.27562,-0.13364 -0.4082,-0.21094 -0.13259,-0.0773 -0.44347,-0.29759 -0.47657,-0.34179 -0.0331,-0.0442 -0.0644,-0.17735 -0.0976,-0.33203 -0.0331,-0.15468 -0.13354,-0.2312 -0.17774,-0.27539 -8.8e-4,-6.5e-4 -0.005,-0.003 -0.006,-0.004 -0.0786,-0.0357 -0.51367,-0.008 -0.51367,-0.008 l -0.2207,-0.29688 c 0,0 -0.0781,-0.50853 -0.0781,-0.55273 0,-0.0442 -0.17578,-0.73047 -0.17578,-0.73047 l -0.0332,-0.76758 c 0,0 -0.0389,-0.46095 -0.0469,-0.53125 -0.008,-0.0703 -3e-5,-0.11719 -0.0156,-0.32813 -0.0154,-0.20762 0.15105,-0.43835 0.15625,-0.49023 v -0.002 c 0,-0.0469 0.0781,-0.29689 0.14062,-0.36719 9.8e-4,-10e-4 0.003,-0.003 0.004,-0.004 0.0759,-0.053 0.40564,0.0803 0.46094,0.082 h 0.002 0.002 0.002 c 0.0479,-0.0209 0.24881,-0.24322 0.27148,-0.27344 0.0234,-0.0312 0.15625,-0.39063 0.15625,-0.39063 0,0 0.1094,-0.27344 0.125,-0.33593 v -0.002 -0.002 l 0.002,-0.002 0.002,-0.002 c 0.0597,-0.0559 0.44141,-0.0937 0.44141,-0.0937 l 0.45117,-0.48828 c 0,0 0.099,-0.26635 0.12109,-0.31055 l 0.002,-0.002 0.002,-0.002 0.002,-0.002 c 0.0546,-0.0437 0.34766,-0.10351 0.34766,-0.10351 0,0 0.39926,-0.12244 0.47656,-0.17773 0.0773,-0.0552 0.1764,-0.2534 0.1875,-0.3418 0.0111,-0.0884 0.1543,-0.44141 0.1543,-0.44141 0,0 0.29772,-0.10033 0.4082,-0.14453 0.11049,-0.0442 0.32031,-0.27539 0.32031,-0.27539 l 0.39844,-0.38672 c 0,0 0.16558,-0.20006 0.28711,-0.31055 0.12153,-0.11048 0.375,-0.375 0.375,-0.375 0,0 0.32183,-0.54235 0.44336,-0.59765 0.12154,-0.0552 0.65068,-0.01 0.8164,-0.01 0.16573,0 0.50926,-0.13219 0.56446,-0.15429 0.0552,-0.0221 0.24167,-0.25474 0.29687,-0.33204 0.0552,-0.0773 0.25535,-0.28661 0.31055,-0.374996 0.0552,-0.08839 0.34135,-0.112113 0.46289,-0.189453 0.12153,-0.07734 0.86296,-0.08861 1.05078,-0.132812 0.18783,-0.04419 0.44141,-0.07617 0.44141,-0.07617 0,0 0.38621,-0.254807 0.47461,-0.398438 0.0884,-0.143631 0.0886,-0.286557 0.13281,-0.341797 l 0.002,-0.002 c 0.0629,-0.05098 0.43201,-0.06452 0.53906,-0.08594 0.11049,-0.0221 0.98438,0.121094 0.98438,0.121094 0,0 0.47161,-0.385663 0.48633,-0.460938 v -0.002 -0.002 c 0,-0.06629 -0.0664,-0.265185 -0.0996,-0.386719 -0.0332,-0.121532 0.46289,-0.208984 0.46289,-0.208984 0,0 0.39805,-0.24303 0.55273,-0.353516 0.15468,-0.110485 0.27735,-0.365234 0.27735,-0.365234 l -0.0566,-0.496094 0.42968,-0.789063 c 0,0 -0.12412,-0.441005 -1.35351,0.25586 -1.44115,0.816898 -0.84375,0.476562 -0.84375,0.476562 l -0.74024,-0.496093 -1.39062,-0.332032 -1.99024,-0.199218 h -1.48046 l -1.61329,0.02148 c 0,0 -1.01546,0.222157 -1.30273,0.310547 -0.28726,0.08839 -0.52976,0.221435 -0.79492,0.265625 -0.26517,0.04419 -0.39844,0.486328 -0.39844,0.486328 l -0.81836,0.375 -1.32422,-0.08789 -1.25976,0.263672 -1.06055,-0.06641 c 0,0 -0.44274,-0.19761 -0.46484,-0.396484 -0.0221,-0.198874 -0.41993,-0.53125 -0.41993,-0.53125 l -0.86132,-0.353516 -1.17188,-0.02148 -0.88281,-0.177735 c 0,0 -0.30993,-0.308094 -0.33203,-0.396484 -0.0221,-0.08839 -0.35352,-0.28711 -0.35352,-0.287109 l -0.72851,-0.177735 -0.83985,0.02148 -0.77344,-0.154297 -1.06054,0.177734 -0.26563,-0.574219 -0.53125,-0.707031 0.35352,-1.414063 0.0684,-0.802734 c 5.16642,-1.179117 13.37968,-2.808979 18.89648,-3.11914 9.76709,-0.549121 22.74014,3.367864 30.99414,6.980468 8.254,3.473656 15.0262,7.857924 20.07032,14.527344 l 14.90429,-13.546875 c -7.18404,-8.33678 -16.12654,-14.727546 -26.82617,-19.173828 -10.69963,-4.446282 -22.39337,-6.669922 -35.08008,-6.669922 z m -43.58594,33.367185 0.17188,0.55469 c 0,0 0.5,1.03125 0.75,1.5 0.25,0.46875 -0.1875,1.4375 -0.1875,1.875 0,0.4375 0.0312,1.3125 0.0312,1.4375 0,0.125 0.59375,1.125 0.59375,1.125 0,0 0.25005,1.75 0.28125,2.09375 0.0313,0.34375 -0.0937,2.125 -0.0937,2.125 l 0.23047,2.38672 c 0,0 0.15368,1.56736 0.17578,1.74414 0.0221,0.17677 0.067,1.39315 0.0449,1.72461 -0.0221,0.33146 -0.0449,1.59068 -0.0449,1.70117 0,0.11048 -0.77344,1.90039 -0.77344,1.90039 l -0.30859,1.30469 c 0,0 -0.77416,1.56882 -0.81836,1.83398 -0.0442,0.26517 -0.50781,2.47485 -0.50781,2.60742 0,0.13258 -0.41993,2.09766 -0.41993,2.09766 l -0.45312,1.54297 c 0,0 -0.0937,1.125 -0.0937,1.25 0,0.125 0.3125,1.59375 0.375,1.90625 0.0624,0.3125 0.0312,1.5625 0.0312,1.6875 0,0.125 0.46875,1.90625 0.46875,1.90625 L 138.1875,142 c 0,0 1.0312,0.96875 1.21875,1.21875 0.1875,0.25 0.75,0.93755 0.90625,1.03125 0.15625,0.0937 0.75,0.71875 0.875,0.9375 0.125,0.21875 0.71875,1.0625 0.71875,1.0625 0,0 1.34375,1.40625 1.46875,1.5625 0.125,0.15625 0.96875,0.84375 1.125,1.03125 0.15625,0.1875 1,1.0625 1,1.0625 l 1.1875,1.15625 0.375,1.78125 c 0,0 0.78125,0.65625 1,0.90625 0.21875,0.25 0.15625,1.0625 0.15625,1.25 0,0.1875 0.21875,1.09375 0.0937,1.4375 -0.125,0.34375 0.15625,0.71875 0.15625,0.71875 0,0 0.71875,1.5 1.21875,1.8125 0.5,0.3125 0.75,0.75 0.75,0.75 0,0 1.9375,0.4688 2.34375,0.5 0.40625,0.0312 0.28125,-0.0312 0.59375,0 0.3125,0.0312 0.6252,0.40614 0.71875,0.59375 0.0937,0.1875 0.5,0.34375 0.90625,0.59375 0.40625,0.25 1.34375,0.4375 1.65625,0.5 0.3125,0.0625 0.96875,-0.43755 1.09375,-0.46875 0.125,-0.0313 1.03125,0.0937 1.03125,0.0937 0,0 0.625,0.625 0.84375,0.8125 0.21875,0.1875 0.53125,0.59375 0.53125,0.59375 0,0 1.3125,0.75 1.875,0.9375 0.5625,0.18755 0.8125,0.15625 1.28125,0.21875 0.46875,0.0625 1.5625,0.0937 1.5625,0.0937 l 0.78125,0.6875 1.03125,0.8125 c 0,0 0.14622,1.40989 0.36719,1.63086 0.22097,0.22097 1.54492,2.34375 1.54492,2.34375 l 0.88477,0.61719 1.23828,0.70703 1.41406,0.26562 c 0,0 1.59076,0.57564 2.12109,1.01758 0.53033,0.44194 1.06055,1.89939 1.06055,2.07617 0,0.17677 0.0447,0.70772 -0.0879,1.10547 -0.1326,0.39775 -0.0449,0.70703 -0.0449,0.70703 0,0 -0.92846,1.10521 -0.97266,1.32618 -0.0442,0.22096 -0.0442,0.30951 0,0.83984 0.0442,0.53033 -0.26511,1.63443 -0.35351,2.5625 -0.0884,0.92808 -0.0879,1.01631 -0.0879,1.41406 0,0.39774 -0.0444,0.88423 -0.13281,1.32617 -0.0884,0.44194 0.13354,1.85666 0.17774,2.16602 0.0442,0.30936 0.0881,0.57345 0.2207,0.88281 0.13258,0.30936 0.26536,0.7075 0.48633,0.97266 0.22097,0.26517 0.74973,1.2817 0.9707,1.54687 0.22097,0.26516 0.66281,0.8835 1.06055,1.28125 0.39775,0.39775 0.48678,0.53149 0.75195,0.66406 0.26516,0.1326 1.45845,0.17555 1.90039,0.043 0.44195,-0.13259 0.61838,0.13305 0.92774,0.26563 0.30936,0.13258 1.0615,1.01731 1.23828,1.23828 0.17678,0.22097 0.53025,0.35301 0.70703,0.44141 0.17677,0.0884 -0.17774,1.10546 -0.17774,1.10547 l 0.26563,1.01562 c 0,0 0.0449,0.66355 0.39844,0.75195 0.35356,0.0884 0.52929,0.22071 0.52929,0.22071 l 0.22071,1.10351 0.0898,0.79688 -0.35352,1.50195 0.16016,0.47266 c -1.33926,0.0308 -2.69646,0.0449 -4.07031,0.0449 -11.00534,0 -21.3817,-1.79927 -29.94141,-6.52344 -8.55971,-4.72417 -16.57893,-11.81752 -21.62305,-20.1543 -5.04411,-8.33677 -8.14062,-18.25957 -8.14062,-29.23632 0,-10.83782 2.70639,-21.15932 7.59766,-29.4961 3.20814,-5.30233 6.45688,-8.23073 10.35546,-11.06836 z" />
      <path
         d="m 356.53202,72.802661 v 18.04413 h -41.11013 q -23.45832,0 -23.45832,16.813849 0,9.02207 10.21946,15.37852 10.45173,6.15141 28.10354,11.89272 7.89686,2.66561 13.47112,5.53627 5.57425,2.66561 11.14851,7.17664 5.57425,4.51104 8.36138,11.68768 2.78713,6.9716 2.78713,16.19871 0,10.25233 -4.87747,18.45421 -4.87748,7.99683 -12.54208,12.71291 -7.6646,4.51103 -15.79372,6.9716 -7.89686,2.25551 -15.56146,2.46056 -3.25165,0.20505 -9.29043,0.20505 h -36.23266 v -18.04413 h 35.53588 q 15.79372,0 25.78093,-5.74132 9.98721,-5.94636 9.98721,-17.22393 0,-5.53627 -2.78713,-9.63721 -2.78713,-4.30598 -8.12912,-7.38169 -5.10974,-3.0757 -10.68399,-5.33122 -5.342,-2.25551 -13.0066,-4.71607 -2.09035,-0.61515 -3.25165,-1.02524 -36.46492,-12.30282 -36.46492,-40.1892 0,-17.223944 12.54208,-25.630868 12.54207,-8.611971 32.74875,-8.611971 z m 117.0593,0 v 18.04413 h -41.11013 q -23.45833,0 -23.45833,16.813849 0,9.02207 10.21947,15.37852 10.45173,6.15141 28.10354,11.89272 7.89686,2.66561 13.47112,5.53627 5.57425,2.66561 11.14851,7.17664 5.57425,4.51104 8.36138,11.68768 2.78713,6.9716 2.78713,16.19871 0,10.25233 -4.87748,18.45421 -4.87747,7.99683 -12.54207,12.71291 -7.6646,4.51103 -15.79372,6.9716 -7.89687,2.25551 -15.56147,2.46056 -3.25165,0.20505 -9.29042,0.20505 h -36.23266 v -18.04413 h 35.53588 q 15.79372,0 25.78093,-5.74132 9.9872,-5.94636 9.9872,-17.22393 0,-5.53627 -2.78712,-9.63721 -2.78713,-4.30598 -8.12913,-7.38169 -5.10973,-3.0757 -10.68398,-5.33122 -5.342,-2.25551 -13.0066,-4.71607 -2.09035,-0.61515 -3.25165,-1.02524 -36.46492,-12.30282 -36.46492,-40.1892 0,-17.223944 12.54207,-25.630868 12.54208,-8.611971 32.74875,-8.611971 z"
         id="text9"
         style="font-size:218.23px;font-family:Baumans;-inkscape-font-specification:'Baumans, @wght=116';font-variation-settings:'wght' 116;display:inline;fill:#7C7B7B;stroke:#7C7B7B;stroke-width:1"
         aria-label="SS" />
    </g>
  </g>
  <g
     id="text6"
     style="opacity:1"
     transform="matrix(1.0488464,0,0,0.95342846,-51.324219,-69.795855)" />
</svg>
