<?xml version="1.0" encoding="UTF-8" standalone="no"?>
<!-- Created with Inkscape (http://www.inkscape.org/) -->

<svg
   version="1.1"
   id="svg1"
   width="384.53003"
   height="149.81352"
   viewBox="0 0 384.53003 149.81352"
   sodipodi:docname="GSS_Letters_White.svg"
   inkscape:version="1.4.2 (f4327f4, 2025-05-13)"
   xmlns:inkscape="http://www.inkscape.org/namespaces/inkscape"
   xmlns:sodipodi="http://sodipodi.sourceforge.net/DTD/sodipodi-0.dtd"
   xmlns="http://www.w3.org/2000/svg"
   xmlns:svg="http://www.w3.org/2000/svg">
  <defs
     id="defs1" />
  <sodipodi:namedview
     id="namedview1"
     pagecolor="#505050"
     bordercolor="#eeeeee"
     borderopacity="1"
     inkscape:showpageshadow="0"
     inkscape:pageopacity="0"
     inkscape:pagecheckerboard="0"
     inkscape:deskcolor="#505050"
     inkscape:zoom="2.0130446"
     inkscape:cx="51.911418"
     inkscape:cy="211.86813"
     inkscape:window-width="1920"
     inkscape:window-height="1171"
     inkscape:window-x="-9"
     inkscape:window-y="-9"
     inkscape:window-maximized="1"
     inkscape:current-layer="layer3" />
  <g
     inkscape:groupmode="layer"
     id="layer3"
     inkscape:label="TRACE"
     transform="translate(-99.083984,-69.795855)">
    <g
       id="g43">
   

         d=&quot;M 63.033203 241.16016 C 61.439668 241.16016 59.954365 241.4476 58.576172 242.02344 C 57.219514 242.57794 56.035547 243.36692 55.023438 244.39062 C 54.011328 245.41433 53.223953 246.60968 52.664062 247.97461 C 52.104172 249.33955 51.824219 250.82039 51.824219 252.41992 C 51.824219 254.01946 52.104172 255.51412 52.664062 256.90039 C 53.223953 258.26532 53.999658 259.45872 54.990234 260.48242 C 56.002344 261.4848 57.186311 262.27378 58.542969 262.84961 C 59.899627 263.40412 61.365499 263.68164 62.9375 263.68164 C 65.004789 263.68164 66.812815 263.24355 68.363281 262.36914 C 69.913747 261.49473 71.119098 260.21609 71.980469 258.53125 C 72.863373 256.8464 73.304688 254.78872 73.304688 252.35742 L 73.304688 252.03711 L 62.613281 252.03711 L 62.613281 253.86133 L 71.207031 253.86133 C 71.104257 255.35555 70.758601 256.65598 70.171875 257.76367 C 69.504313 259.06463 68.545862 260.06573 67.296875 260.76953 C 66.047888 261.452 64.574254 261.79492 62.873047 261.79492 C 61.128772 261.79492 59.577361 261.40043 58.220703 260.61133 C 56.885579 259.80089 55.82992 258.69079 55.054688 257.2832 C 54.279454 255.87561 53.892578 254.26593 53.892578 252.45312 C 53.892578 250.61899 54.279454 248.99744 55.054688 247.58984 C 55.82992 246.18226 56.906964 245.07411 58.285156 244.26367 C 59.684883 243.45324 61.267394 243.04688 63.033203 243.04688 C 64.562136 243.04687 65.940517 243.35612 67.167969 243.97461 C 68.416956 244.57177 69.429845 245.44599 70.205078 246.59766 L 71.625 245.19141 C 70.677493 243.91177 69.450757 242.91864 67.943359 242.21484 C 66.457495 241.51105 64.820546 241.16016 63.033203 241.16016 z M 103.43359 241.16016 C 101.88313 241.16016 100.44059 241.4476 99.105469 242.02344 C 97.770345 242.59927 96.607763 243.40013 95.617188 244.42383 C 94.626612 245.44753 93.850906 246.64093 93.291016 248.00586 C 92.752659 249.34947 92.482422 250.82039 92.482422 252.41992 C 92.482422 253.97681 92.752659 255.44967 93.291016 256.83594 C 93.850906 258.20087 94.626611 259.40614 95.617188 260.45117 C 96.629298 261.47487 97.801595 262.27378 99.136719 262.84961 C 100.49337 263.42544 101.94758 263.71289 103.49805 263.71289 C 105.04851 263.71289 106.47938 263.42544 107.79297 262.84961 C 109.12809 262.27378 110.29262 261.47487 111.2832 260.45117 C 112.27378 259.42747 113.03782 258.23212 113.57617 256.86719 C 114.13607 255.48092 114.41602 254.01 114.41602 252.45312 C 114.41602 250.85359 114.13607 249.3708 113.57617 248.00586 C 113.03782 246.64093 112.26211 245.44753 111.25 244.42383 C 110.25942 243.40013 109.09684 242.59927 107.76172 242.02344 C 106.42659 241.4476 104.98406 241.16016 103.43359 241.16016 z M 192.45508 241.16016 C 191.20609 241.16016 190.08628 241.39409 189.0957 241.86328 C 188.10512 242.31115 187.33137 242.95144 186.77148 243.7832 C 186.21159 244.61496 185.93164 245.60615 185.93164 246.75781 C 185.93164 247.88815 186.13577 248.81589 186.54492 249.54102 C 186.95407 250.26614 187.49259 250.86478 188.16016 251.33398 C 188.82772 251.78186 189.5587 252.16447 190.35547 252.48438 C 191.17377 252.78296 191.98253 253.08228 192.7793 253.38086 C 193.57606 253.65811 194.30704 253.98916 194.97461 254.37305 C 195.64217 254.73561 196.18069 255.20346 196.58984 255.7793 C 196.99899 256.35513 197.20312 257.11239 197.20312 258.05078 C 197.20312 259.24511 196.74043 260.18472 195.81445 260.86719 C 194.91002 261.52833 193.72605 261.85742 192.26172 261.85742 C 190.86199 261.85742 189.64497 261.6017 188.61133 261.08984 C 187.57768 260.578 186.65228 259.76722 185.83398 258.6582 L 184.44531 260.03516 C 185.37129 261.18682 186.45804 262.09277 187.70703 262.75391 C 188.95602 263.39372 190.44328 263.71289 192.16602 263.71289 C 194.34098 263.71289 196.06346 263.21331 197.33398 262.21094 C 198.6045 261.18723 199.23828 259.72624 199.23828 257.82812 C 199.23828 256.67646 199.03415 255.72692 198.625 254.98047 C 198.21585 254.23402 197.66762 253.61553 196.97852 253.125 C 196.31096 252.63447 195.57802 252.22811 194.78125 251.9082 C 193.98448 251.5883 193.18739 251.30085 192.39062 251.04492 C 191.59386 250.76767 190.86288 250.4485 190.19531 250.08594 C 189.52775 249.72338 188.98923 249.27537 188.58008 248.74219 C 188.17093 248.20901 187.9668 247.50527 187.9668 246.63086 C 187.9668 245.50052 188.37506 244.61442 189.19336 243.97461 C 190.01166 243.3348 191.0887 243.01562 192.42383 243.01562 C 193.56514 243.01562 194.55469 243.23963 195.39453 243.6875 C 196.2559 244.11405 197.04327 244.75434 197.75391 245.60742 L 199.14258 244.26367 C 198.36734 243.30395 197.41861 242.54669 196.29883 241.99219 C 195.17905 241.43769 193.89787 241.16016 192.45508 241.16016 z M 310.36719 241.16016 C 308.77365 241.16016 307.2864 241.4476 305.9082 242.02344 C 304.55154 242.57794 303.36758 243.36692 302.35547 244.39062 C 301.34336 245.41433 300.55794 246.60968 299.99805 247.97461 C 299.43816 249.33955 299.1582 250.82039 299.1582 252.41992 C 299.1582 254.01946 299.43816 255.51412 299.99805 256.90039 C 300.55794 258.26532 301.33365 259.45872 302.32422 260.48242 C 303.33633 261.4848 304.52029 262.27378 305.87695 262.84961 C 307.23361 263.40412 308.69753 263.68164 310.26953 263.68164 C 312.33682 263.68164 314.14485 263.24355 315.69531 262.36914 C 317.24578 261.49473 318.45309 260.21609 319.31445 258.53125 C 320.19736 256.8464 320.63867 254.78872 320.63867 252.35742 L 320.63867 252.03711 L 309.94727 252.03711 L 309.94727 253.86133 L 318.53906 253.86133 C 318.43629 255.35555 318.09259 256.65598 317.50586 257.76367 C 316.8383 259.06463 315.87985 260.06573 314.63086 260.76953 C 313.38187 261.452 311.90628 261.79492 310.20508 261.79492 C 308.4608 261.79492 306.90939 261.40043 305.55273 260.61133 C 304.21761 259.80089 303.16391 258.69079 302.38867 257.2832 C 301.61344 255.87561 301.22461 254.26593 301.22461 252.45312 C 301.22461 250.61899 301.61344 248.99744 302.38867 247.58984 C 303.16391 246.18226 304.24095 245.07411 305.61914 244.26367 C 307.01887 243.45324 308.60137 243.04688 310.36719 243.04688 C 311.89612 243.04687 313.2745 243.35612 314.50195 243.97461 C 315.75094 244.57177 316.76188 245.44599 317.53711 246.59766 L 318.95898 245.19141 C 318.01148 243.91177 316.78279 242.91864 315.27539 242.21484 C 313.78952 241.51105 312.15453 241.16016 310.36719 241.16016 z M 342.99023 241.16016 C 341.41823 241.16016 339.95431 241.4476 338.59766 242.02344 C 337.26253 242.59927 336.09995 243.40013 335.10938 244.42383 C 334.11879 245.44753 333.34309 246.64093 332.7832 248.00586 C 332.24484 249.3708 331.97656 250.84172 331.97656 252.41992 C 331.97656 253.99814 332.24484 255.471 332.7832 256.83594 C 333.34309 258.20087 334.13046 259.40614 335.14258 260.45117 C 336.15468 261.47487 337.33865 262.27378 338.69531 262.84961 C 340.05197 263.42544 341.51589 263.71289 343.08789 263.71289 C 344.76756 263.71289 346.28592 263.41552 347.64258 262.81836 C 349.02077 262.19987 350.20473 261.36729 351.19531 260.32227 L 349.80664 258.94727 C 349.03141 259.82168 348.06129 260.51354 346.89844 261.02539 C 345.75712 261.53724 344.46623 261.79492 343.02344 261.79492 C 341.73138 261.79492 340.53575 261.57092 339.4375 261.12305 C 338.36079 260.65385 337.414 259.99176 336.5957 259.13867 C 335.79894 258.28559 335.17488 257.2944 334.72266 256.16406 C 334.27044 255.0124 334.04297 253.76354 334.04297 252.41992 C 334.04297 251.07632 334.25877 249.83932 334.68945 248.70898 C 335.14167 247.57864 335.7774 246.59934 336.5957 245.76758 C 337.414 244.91449 338.36079 244.2524 339.4375 243.7832 C 340.51421 243.314 341.69817 243.08008 342.99023 243.08008 C 344.36842 243.08008 345.62821 243.3358 346.76953 243.84766 C 347.91084 244.33818 348.8693 245.03003 349.64453 245.92578 L 351.0332 244.55078 C 350.0211 243.48443 348.83713 242.6538 347.48047 242.05664 C 346.14534 241.45948 344.64837 241.16016 342.99023 241.16016 z M 369.02539 241.16016 C 367.7764 241.16016 366.65659 241.39409 365.66602 241.86328 C 364.67544 242.31115 363.89973 242.95144 363.33984 243.7832 C 362.77995 244.61496 362.5 245.60615 362.5 246.75781 C 362.5 247.88815 362.70608 248.81589 363.11523 249.54102 C 363.52438 250.26614 364.0629 250.86478 364.73047 251.33398 C 365.39803 251.78186 366.12901 252.16447 366.92578 252.48438 C 367.74408 252.78296 368.55284 253.08228 369.34961 253.38086 C 370.14638 253.65811 370.87736 253.98916 371.54492 254.37305 C 372.21248 254.73561 372.751 255.20346 373.16016 255.7793 C 373.5693 256.35513 373.77344 257.11239 373.77344 258.05078 C 373.77344 259.24511 373.31074 260.18472 372.38477 260.86719 C 371.48033 261.52833 370.29636 261.85742 368.83203 261.85742 C 367.4323 261.85742 366.21528 261.6017 365.18164 261.08984 C 364.14799 260.578 363.2226 259.76722 362.4043 258.6582 L 361.01562 260.03516 C 361.9416 261.18682 363.02836 262.09277 364.27734 262.75391 C 365.52633 263.39372 367.01164 263.71289 368.73438 263.71289 C 370.90934 263.71289 372.63182 263.21331 373.90234 262.21094 C 375.17286 261.18723 375.80859 259.72624 375.80859 257.82812 C 375.80859 256.67646 375.60447 255.72692 375.19531 254.98047 C 374.78617 254.23402 374.23793 253.61553 373.54883 253.125 C 372.88127 252.63447 372.14833 252.22811 371.35156 251.9082 C 370.5548 251.5883 369.7577 251.30085 368.96094 251.04492 C 368.16417 250.76767 367.43319 250.4485 366.76562 250.08594 C 366.09806 249.72338 365.55954 249.27537 365.15039 248.74219 C 364.74124 248.20901 364.53516 247.50527 364.53516 246.63086 C 364.53516 245.50052 364.94537 244.61442 365.76367 243.97461 C 366.58197 243.3348 367.65901 243.01562 368.99414 243.01562 C 370.13545 243.01562 371.125 243.23963 371.96484 243.6875 C 372.82621 244.11405 373.61163 244.75434 374.32227 245.60742 L 375.71289 244.26367 C 374.93766 243.30395 373.98893 242.54669 372.86914 241.99219 C 371.74936 241.43769 370.46818 241.16016 369.02539 241.16016 z M 390.25 241.16016 C 388.69953 241.16016 387.25699 241.4476 385.92188 242.02344 C 384.58675 242.59927 383.42417 243.40013 382.43359 244.42383 C 381.44301 245.44753 380.66731 246.64093 380.10742 248.00586 C 379.56906 249.34947 379.30078 250.82039 379.30078 252.41992 C 379.30078 253.97681 379.56906 255.44967 380.10742 256.83594 C 380.66731 258.20087 381.44301 259.40614 382.43359 260.45117 C 383.4457 261.47487 384.61995 262.27378 385.95508 262.84961 C 387.31173 263.42544 388.76399 263.71289 390.31445 263.71289 C 391.86492 263.71289 393.29773 263.42544 394.61133 262.84961 C 395.94645 262.27378 397.10903 261.47487 398.09961 260.45117 C 399.09018 259.42747 399.85422 258.23212 400.39258 256.86719 C 400.95246 255.48092 401.23242 254.01 401.23242 252.45312 C 401.23242 250.85359 400.95246 249.3708 400.39258 248.00586 C 399.85422 246.64093 399.07851 245.44753 398.06641 244.42383 C 397.07583 243.40013 395.91325 242.59927 394.57812 242.02344 C 393.243 241.4476 391.80047 241.16016 390.25 241.16016 z M 482.73242 241.16016 C 481.18196 241.16016 479.73942 241.4476 478.4043 242.02344 C 477.06918 242.59927 475.9066 243.40013 474.91602 244.42383 C 473.92544 245.44753 473.14974 246.64093 472.58984 248.00586 C 472.05149 249.34947 471.78125 250.82039 471.78125 252.41992 C 471.78125 253.97681 472.05149 255.44967 472.58984 256.83594 C 473.14974 258.20087 473.92544 259.40614 474.91602 260.45117 C 475.92813 261.47487 477.10043 262.27378 478.43555 262.84961 C 479.79221 263.42544 481.24641 263.71289 482.79688 263.71289 C 484.34734 263.71289 485.7782 263.42544 487.0918 262.84961 C 488.42692 262.27378 489.59146 261.47487 490.58203 260.45117 C 491.57261 259.42747 492.33665 258.23212 492.875 256.86719 C 493.43489 255.48092 493.71484 254.01 493.71484 252.45312 C 493.71484 250.85359 493.43489 249.3708 492.875 248.00586 C 492.33665 246.64093 491.56094 245.44753 490.54883 244.42383 C 489.55825 243.40013 488.39567 242.59927 487.06055 242.02344 C 485.72543 241.4476 484.28289 241.16016 482.73242 241.16016 z M 527.01758 241.16016 C 525.76859 241.16016 524.64878 241.39409 523.6582 241.86328 C 522.66763 242.31115 521.89192 242.95144 521.33203 243.7832 C 520.77214 244.61496 520.49219 245.60615 520.49219 246.75781 C 520.49219 247.88815 520.69632 248.81589 521.10547 249.54102 C 521.51462 250.26614 522.05314 250.86478 522.7207 251.33398 C 523.38826 251.78186 524.1212 252.16447 524.91797 252.48438 C 525.73628 252.78296 526.54308 253.08228 527.33984 253.38086 C 528.13661 253.65811 528.86955 253.98916 529.53711 254.37305 C 530.20468 254.73561 530.7432 255.20346 531.15234 255.7793 C 531.5615 256.35513 531.76562 257.11239 531.76562 258.05078 C 531.76563 259.24511 531.30293 260.18472 530.37695 260.86719 C 529.47251 261.52833 528.28855 261.85742 526.82422 261.85742 C 525.42449 261.85742 524.20747 261.6017 523.17383 261.08984 C 522.14018 260.578 521.21283 259.76722 520.39453 258.6582 L 519.00586 260.03516 C 519.93183 261.18682 521.02054 262.09277 522.26953 262.75391 C 523.51852 263.39372 525.00382 263.71289 526.72656 263.71289 C 528.90152 263.71289 530.62401 263.21331 531.89453 262.21094 C 533.16506 261.18723 533.80078 259.72624 533.80078 257.82812 C 533.80078 256.67646 533.59665 255.72692 533.1875 254.98047 C 532.77835 254.23402 532.22816 253.61553 531.53906 253.125 C 530.8715 252.63447 530.14052 252.22811 529.34375 251.9082 C 528.54698 251.5883 527.74989 251.30085 526.95312 251.04492 C 526.15636 250.76767 525.42342 250.4485 524.75586 250.08594 C 524.0883 249.72338 523.54978 249.27537 523.14062 248.74219 C 522.73147 248.20901 522.52734 247.50527 522.52734 246.63086 C 522.52734 245.50052 522.9356 244.61442 523.75391 243.97461 C 524.57221 243.3348 525.64926 243.01562 526.98438 243.01562 C 528.1257 243.01562 529.1172 243.23963 529.95703 243.6875 C 530.8184 244.11405 531.60383 244.75434 532.31445 245.60742 L 533.70312 244.26367 C 532.92789 243.30395 531.98111 242.54669 530.86133 241.99219 C 529.74155 241.43769 528.46038 241.16016 527.01758 241.16016 z M 77.892578 241.48047 L 77.892578 263.39453 L 79.183594 263.39453 L 79.894531 263.39453 L 91.523438 263.39453 L 91.523438 261.57031 L 79.894531 261.57031 L 79.894531 241.48047 L 77.892578 241.48047 z M 119.19531 241.48047 L 119.19531 263.39453 L 120.42383 263.39453 L 121.19922 263.39453 L 127.46484 263.39453 C 128.97224 263.39453 130.26508 263.13685 131.3418 262.625 C 132.41851 262.09182 133.2467 261.36824 133.82812 260.45117 C 134.40955 259.53411 134.70117 258.47752 134.70117 257.2832 C 134.70117 255.87561 134.29096 254.67035 133.47266 253.66797 C 132.80147 252.82831 131.9144 252.18987 130.80859 251.75195 C 131.59846 251.34144 132.22696 250.81821 132.69727 250.18164 C 133.34329 249.2859 133.66797 248.2194 133.66797 246.98242 C 133.66797 245.91606 133.4094 244.9784 132.89258 244.16797 C 132.39729 243.33622 131.67602 242.68404 130.72852 242.21484 C 129.78101 241.72432 128.62814 241.48047 127.27148 241.48047 L 121.19922 241.48047 L 120.42383 241.48047 L 119.19531 241.48047 z M 146.78125 241.48047 L 137.76953 263.39453 L 139.86914 263.39453 L 142.36133 257.2832 L 152.67578 257.2832 L 155.14844 263.39453 L 157.3125 263.39453 L 148.33203 241.48047 L 146.78125 241.48047 z M 161.31641 241.48047 L 161.31641 263.39453 L 162.60938 263.39453 L 163.32031 263.39453 L 174.94922 263.39453 L 174.94922 261.57031 L 163.32031 261.57031 L 163.32031 241.48047 L 161.31641 241.48047 z M 201.09961 241.48047 L 201.09961 243.30273 L 209.04688 243.30273 L 209.04688 263.39453 L 211.08203 263.39453 L 211.08203 243.30273 L 219.02734 243.30273 L 219.02734 241.48047 L 201.09961 241.48047 z M 223.25977 241.48047 L 223.25977 263.39453 L 225.26172 263.39453 L 225.26172 253.47656 L 228.83789 253.47656 L 236.95508 263.39453 L 239.53906 263.39453 L 231.29102 253.47461 C 232.65479 253.4546 233.82202 253.20987 234.79102 252.74023 C 235.82466 252.22838 236.61008 251.52465 237.14844 250.62891 C 237.6868 249.73317 237.95703 248.68846 237.95703 247.49414 C 237.95703 246.32115 237.6868 245.28636 237.14844 244.39062 C 236.61008 243.47356 235.82466 242.7599 234.79102 242.24805 C 233.77891 241.73619 232.55218 241.48047 231.10938 241.48047 L 225.26172 241.48047 L 224.48633 241.48047 L 223.25977 241.48047 z M 249.97266 241.48047 L 240.96094 263.39453 L 243.06055 263.39453 L 245.55273 257.2832 L 255.86523 257.2832 L 258.33789 263.39453 L 260.50195 263.39453 L 251.52344 241.48047 L 249.97266 241.48047 z M 259.60742 241.48047 L 259.60742 243.30273 L 267.55273 243.30273 L 267.55273 263.39453 L 269.58789 263.39453 L 269.58789 243.30273 L 277.5332 243.30273 L 277.5332 241.48047 L 259.60742 241.48047 z M 281.76562 241.48047 L 281.76562 263.39453 L 283.05664 263.39453 L 283.76758 263.39453 L 296.23633 263.39453 L 296.23633 261.57031 L 283.76758 261.57031 L 283.76758 253.0293 L 295.20312 253.0293 L 295.20312 251.30078 L 283.76758 251.30078 L 283.76758 243.30273 L 296.04297 243.30273 L 296.04297 241.48047 L 283.76758 241.48047 L 283.05664 241.48047 L 281.76562 241.48047 z M 325.22461 241.48047 L 325.22461 263.39453 L 327.22852 263.39453 L 327.22852 241.48047 L 325.22461 241.48047 z M 406.01367 241.48047 L 406.01367 263.39453 L 407.30469 263.39453 L 408.01562 263.39453 L 419.64453 263.39453 L 419.64453 261.57031 L 408.01562 261.57031 L 408.01562 241.48047 L 406.01367 241.48047 z M 422.875 241.48047 L 422.875 255.65234 C 422.875 257.1879 423.23078 258.56365 423.94141 259.7793 C 424.67357 260.99495 425.65341 261.95441 426.88086 262.6582 C 428.12985 263.362 429.53933 263.71289 431.11133 263.71289 C 432.66179 263.71289 434.05184 263.362 435.2793 262.6582 C 436.52828 261.95441 437.50812 261.00487 438.21875 259.81055 C 438.92938 258.5949 439.2832 257.21915 439.2832 255.68359 L 439.2832 241.48047 L 437.28125 241.48047 L 437.28125 255.55664 C 437.28125 256.81494 437.01102 257.91317 436.47266 258.85156 C 435.9343 259.78996 435.20332 260.51354 434.27734 261.02539 C 433.35137 261.53724 432.286 261.79492 431.08008 261.79492 C 429.91723 261.79492 428.86158 261.53724 427.91406 261.02539 C 426.9881 260.51354 426.24544 259.78996 425.68555 258.85156 C 425.14719 257.91317 424.87695 256.80306 424.87695 255.52344 L 424.87695 241.48047 L 422.875 241.48047 z M 442.87109 241.48047 L 442.87109 243.30273 L 450.81836 243.30273 L 450.81836 263.39453 L 452.85352 263.39453 L 452.85352 243.30273 L 460.79883 243.30273 L 460.79883 241.48047 L 442.87109 241.48047 z M 465.03125 241.48047 L 465.03125 263.39453 L 467.0332 263.39453 L 467.0332 241.48047 L 465.03125 241.48047 z M 498.49414 241.48047 L 498.49414 263.39453 L 500.49805 263.39453 L 500.49805 245.36328 L 513.77344 263.39453 L 515.19531 263.39453 L 515.19531 241.48047 L 513.19141 241.48047 L 513.19141 259.50977 L 499.91602 241.48047 L 498.49414 241.48047 z M 103.43359 243.08008 C 104.72565 243.08008 105.90961 243.314 106.98633 243.7832 C 108.06304 244.2524 109.00011 244.91449 109.79688 245.76758 C 110.61518 246.59934 111.23924 247.57864 111.66992 248.70898 C 112.12214 249.83932 112.34766 251.07632 112.34766 252.41992 C 112.34766 254.21141 111.96078 255.82303 111.18555 257.25195 C 110.41031 258.65954 109.35465 259.76769 108.01953 260.57812 C 106.6844 261.38856 105.15633 261.79492 103.43359 261.79492 C 102.16307 261.79492 100.97911 261.55904 99.880859 261.08984 C 98.804147 260.62065 97.86708 259.97043 97.070312 259.13867 C 96.273545 258.28559 95.649485 257.28253 95.197266 256.13086 C 94.76658 254.97919 94.550781 253.74221 94.550781 252.41992 C 94.550781 250.60712 94.927942 249.00931 95.681641 247.62305 C 96.456874 246.21546 97.510579 245.10536 98.845703 244.29492 C 100.18083 243.48449 101.71085 243.08008 103.43359 243.08008 z M 390.25 243.08008 C 391.54205 243.08008 392.72602 243.314 393.80273 243.7832 C 394.87945 244.2524 395.81651 244.91449 396.61328 245.76758 C 397.43159 246.59934 398.05565 247.57864 398.48633 248.70898 C 398.93855 249.83932 399.16602 251.07632 399.16602 252.41992 C 399.16602 254.21141 398.77719 255.82303 398.00195 257.25195 C 397.22672 258.65954 396.17301 259.76769 394.83789 260.57812 C 393.50276 261.38856 391.97274 261.79492 390.25 261.79492 C 388.97948 261.79492 387.79551 261.55904 386.69727 261.08984 C 385.62055 260.62065 384.68349 259.97043 383.88672 259.13867 C 383.08995 258.28559 382.46589 257.28253 382.01367 256.13086 C 381.58299 254.97919 381.36719 253.74221 381.36719 252.41992 C 381.36719 250.60712 381.74435 249.00931 382.49805 247.62305 C 383.27328 246.21546 384.32894 245.10536 385.66406 244.29492 C 386.99918 243.48449 388.52726 243.08008 390.25 243.08008 z M 482.73242 243.08008 C 484.02448 243.08008 485.20844 243.314 486.28516 243.7832 C 487.36187 244.2524 488.29894 244.91449 489.0957 245.76758 C 489.914 246.59934 490.53806 247.57864 490.96875 248.70898 C 491.42097 249.83932 491.64648 251.07632 491.64648 252.41992 C 491.64648 254.21141 491.25961 255.82303 490.48438 257.25195 C 489.70914 258.65954 488.65348 259.76769 487.31836 260.57812 C 485.98323 261.38856 484.45516 261.79492 482.73242 261.79492 C 481.4619 261.79492 480.27793 261.55904 479.17969 261.08984 C 478.10297 260.62065 477.16591 259.97043 476.36914 259.13867 C 475.57237 258.28559 474.94831 257.28253 474.49609 256.13086 C 474.06541 254.97919 473.84961 253.74221 473.84961 252.41992 C 473.84961 250.60712 474.22677 249.00931 474.98047 247.62305 C 475.7557 246.21546 476.80941 245.10536 478.14453 244.29492 C 479.47966 243.48449 481.00968 243.08008 482.73242 243.08008 z M 121.19922 243.24023 L 127.24023 243.24023 C 128.57535 243.24023 129.64073 243.5812 130.4375 244.26367 C 131.25581 244.94614 131.66406 245.9056 131.66406 247.14258 C 131.66406 248.35823 131.29857 249.30777 130.56641 249.99023 C 129.83424 250.6727 128.83302 251.01367 127.5625 251.01367 L 121.19922 251.01367 L 121.19922 243.24023 z M 225.26172 243.24023 L 231.17383 243.24023 C 232.72429 243.24023 233.90826 243.63472 234.72656 244.42383 C 235.54486 245.21293 235.95313 246.23584 235.95312 247.49414 C 235.95312 248.7951 235.53319 249.83981 234.69336 250.62891 C 233.87505 251.39669 232.69109 251.78125 231.14062 251.78125 L 225.26172 251.78125 L 225.26172 243.24023 z M 250.73047 244.58398 L 255.1543 255.52344 L 246.26953 255.52344 L 250.73047 244.58398 z M 147.53906 244.58789 L 151.96484 255.52344 L 143.08008 255.52344 L 147.53906 244.58789 z M 121.19922 252.74023 L 127.88477 252.74023 C 128.83228 252.74023 129.66242 252.93251 130.37305 253.31641 C 131.10521 253.70029 131.66512 254.23355 132.05273 254.91602 C 132.46189 255.57716 132.66602 256.33441 132.66602 257.1875 C 132.66602 258.48846 132.21303 259.55496 131.30859 260.38672 C 130.40415 261.21848 129.17742 261.63477 127.62695 261.63477 L 121.19922 261.63477 L 121.19922 252.74023 z &quot; /&gt;
      <path
   id="path8"
   style="display:inline;fill:#123852;stroke:#123852"
   d="m 180.97656,70.296875 c -11.61674,0 -22.39275,1.080481 -32.32812,4.832031 -9.78252,3.751551 -18.34085,9.826397 -25.67774,16.634766 -7.33689,6.808369 -13.07026,14.728248 -17.19726,23.759768 -4.127,8.89256 -6.189456,18.54973 -6.189456,28.9707 0,10.42097 2.062456,20.14817 6.189456,29.17969 4.127,9.03151 9.78275,16.9514 16.96679,23.75976 7.33689,6.80837 15.82151,12.15639 25.45118,16.04688 9.78251,3.75155 20.25197,5.62891 31.41015,5.62891 14.82663,0 27.97166,-2.85008 39.43555,-8.54688 11.61674,-5.6968 20.63491,-14.17113 27.05469,-25.42578 6.57262,-11.3936 8.02655,-23.6297 8.79882,-34.44336 l 0.44141,-6.1875 -59.48047,-0.17774 v 18.10157 l 26.02539,0.043 11.83399,0.0293 c -1.14906,6.55734 -2.23779,10.2979 -5.875,15.59766 -2.57656,2.99529 -11.10733,13.37708 -19.36133,17.26758 -0.90465,0.43444 -1.83455,0.83092 -2.78711,1.19336 l -0.18555,-0.33789 -0.48633,-0.79688 -0.13085,-1.54687 c 0,0 0.35228,-1.28026 0.39648,-1.45703 0.0442,-0.17678 0.92773,-0.53126 0.92773,-0.53126 0,1e-5 0.61864,-0.57467 0.70704,-0.83984 0.0884,-0.26516 0.0898,-1.19336 0.0898,-1.19336 l 1.32617,-0.92773 c 0,0 0.13086,-0.88423 0.13086,-1.32617 0,-0.44194 0.83984,-1.19336 0.83984,-1.19336 l 1.15039,-0.57422 0.043,-1.36914 1.01758,-1.63477 c 0,0 0.0882,-1.54829 -0.13281,-1.99023 -0.22097,-0.44194 -0.39844,-0.83985 -0.39844,-0.83985 0,0 -0.83858,-0.53002 -1.23633,-0.57422 -0.39775,-0.0442 -0.83949,0.17774 -1.76757,0.17774 -0.92808,0 -1.01682,-5.1e-4 -1.32618,0.0879 -0.30936,0.0884 -1.99023,-0.5293 -1.99023,-0.5293 l -0.88281,-0.83984 c 0,0 -1.85666,-1.15012 -2.16602,-1.3711 -0.30936,-0.22096 -1.41402,-0.61788 -1.76758,-1.01562 -0.35355,-0.39775 0.0442,-0.44309 0,-0.66406 -0.0442,-0.22097 -0.48632,-1.50196 -0.48632,-1.50196 0,0 -1.19355,-0.48678 -1.67969,-0.75195 -0.48614,-0.26516 -0.74974,-0.66306 -0.97071,-0.83984 -0.22097,-0.17678 -1.59225,-0.61815 -1.85742,-0.79492 -0.26516,-0.17678 -1.36887,-0.35301 -1.58984,-0.44141 -0.22097,-0.0884 -1.72461,-1.10547 -1.72461,-1.10547 0,0 -2.07637,-0.48534 -2.5625,-0.66211 -0.48614,-0.17678 -0.88446,-0.35496 -1.45899,-0.44336 -0.57453,-0.0884 -1.81123,-0.30808 -2.20898,-0.39648 -0.39775,-0.0884 -1.50337,-0.13377 -1.94531,-0.31055 -0.44194,-0.17678 -1.36914,-0.44141 -1.36914,-0.44141 l -2.25391,0.35352 -1.67969,0.13281 c 0,0 -0.57441,0.1777 -1.06054,0.53125 -0.48614,0.35356 -1.32617,0.17578 -1.32617,0.17578 -1e-5,0 -0.39844,1.2373 -0.39844,1.41407 0,0.17678 0.13281,1.32617 0.13281,1.32617 l -0.5293,-0.17578 c 0,0 -0.57464,-0.13305 -1.19336,-0.26563 -0.61872,-0.13259 -0.88476,-0.70703 -0.88476,-0.70703 l -1.19336,-0.17773 c 0,0 -0.97289,-0.88377 -1.10547,-1.06055 -0.13258,-0.17677 -0.57422,-0.66211 -0.57422,-0.66211 0,0 -0.0112,-1.10502 -0.0664,-1.22656 -0.0553,-0.12153 -0.41941,-0.75152 -0.47461,-0.87305 -0.0552,-0.12154 -0.0879,-0.59721 -0.0879,-0.71875 0,-0.12153 0.0762,-0.67383 0.0762,-0.67383 0,0 -0.3574,-1.41411 -0.4043,-1.50781 -0.0469,-0.0937 -0.21875,-0.51563 -0.21875,-0.625 0,-0.10938 -0.125,-0.5625 -0.26562,-0.625 -0.14063,-0.0625 -1.28126,-0.46877 -1.40626,-0.48437 -0.125,-0.0157 -0.85937,-0.0469 -1.23437,-0.0469 -0.375,0 -0.71875,0.0469 -0.78125,0.0312 h -0.002 c -0.0771,-0.0372 -0.63921,-0.75195 -0.66993,-0.875 -0.0313,-0.125 -0.0313,-0.48437 0.0156,-0.76563 0.0469,-0.28124 -0.0937,-1.1875 -0.20313,-1.32812 -0.10937,-0.1406 -0.75,-0.0156 -0.85937,-0.0156 h -0.002 c -0.11624,0.0232 -0.50243,0.77074 -0.7793,1.09374 -0.28125,0.32815 -0.28125,0.0938 -0.39062,0.0469 -0.10938,-0.0469 -0.59376,-0.37498 -0.8125,-0.35938 -0.21876,0.0156 -1.04688,-0.0781 -1.04688,-0.0781 0,0 -0.4844,-0.40625 -0.5,-0.65625 -0.0154,-0.24609 -1.01462,-0.5989 -1.10547,-0.58008 l -0.002,0.002 h -0.002 c -0.0625,0.0312 -0.28124,0.0625 -0.5625,0.0938 -0.28124,0.0312 -0.9375,-0.17188 -0.9375,-0.17188 0,0 -0.2656,-0.42188 -0.25,-0.54688 0.0156,-0.125 -0.57812,-0.71874 -0.57812,-0.71874 0,0 -0.67185,-0.5625 -0.71875,-0.625 -0.0469,-0.0625 -0.42185,-0.56251 -0.46875,-0.67188 -0.0469,-0.10938 -0.25,-1.0625 -0.25,-1.17188 v -0.98437 c 0,-0.125 0.0312,-1.0625 0.0312,-1.0625 0,0 0.42192,-0.78125 0.51563,-0.96875 0.0937,-0.1875 0.34377,-0.67188 0.42187,-0.92188 0.0781,-0.25 0.23442,-0.84374 0.26563,-1 0.0312,-0.15624 0.65624,-0.62504 0.8125,-0.71874 0.15624,-0.0938 0.42187,-0.26563 0.75,-0.375 0.32812,-0.10938 0.84377,-0.79688 0.92187,-0.92188 0.0781,-0.12498 0.28125,-0.0782 0.54687,-0.17188 0.26563,-0.0937 0.95313,-0.26557 1.1875,-0.23437 0.22706,0.0303 0.87971,-0.11568 0.9629,-0.18164 0.001,-0.001 0.005,-0.005 0.006,-0.006 0.0469,-0.0625 0.67187,-0.60937 0.84374,-0.73437 0.17188,-0.12499 0.85938,0.0469 0.85938,0.0469 0,0 1.3125,-0.2188 1.42188,-0.25 0.10937,-0.0312 0.45314,-0.25002 0.53124,-0.26563 0.0781,-0.0156 0.65626,-0.17192 0.71876,-0.20312 0.0625,-0.0312 0.40624,-0.26567 0.73437,-0.29688 0.32812,-0.0313 0.45313,-0.0938 0.57813,-0.10937 0.125,-0.0157 0.70312,0.12495 0.85937,0.0937 0.15622,-0.0312 0.12502,0.125 0.20313,0.25 0.0781,0.125 0.37499,0.42192 0.48437,0.45312 0.10937,0.0312 0.4375,5e-5 0.57813,0.0313 0.14062,0.0312 0.73437,-0.0625 0.85937,-0.10938 0.125,-0.0469 0.5625,0.10938 0.5625,0.10938 0,0 0.23442,0.42187 0.26563,0.48437 0.0312,0.0625 0.17187,0.45313 0.23437,0.6875 0.0625,0.23438 0.0469,0.6875 0.0469,0.8125 0,0.125 0.10938,0.60937 0.10938,0.73437 0,0.12501 0.0469,0.375 0.17188,0.5625 0.125,0.1875 0.42187,0.625 0.42187,0.625 l 0.32813,0.46876 c 0,0 0.53003,0.54472 0.62109,0.54687 h 0.002 0.002 0.002 l 0.002,-0.002 h 0.002 c 0.0884,-0.0637 0.36914,-0.85743 0.36915,-0.85742 l -0.0156,-0.95313 -0.0937,-0.625 C 173.0416,148.20469 173,147.4375 173,147.375 c 0,-0.0625 -0.13477,-1.44676 -0.13477,-1.53516 0,-0.0884 0.0228,-0.35251 0.0449,-0.52929 0.0221,-0.17677 0.1323,-0.44236 0.2207,-0.61914 0.0884,-0.17677 0.2207,-0.61914 0.2207,-0.61914 l 0.5293,-0.13282 c 0,0 0.22132,-0.64035 0.19922,-0.86133 -0.0221,-0.22096 0,-0.5737 0,-0.6621 0.01,-0.0969 0.61914,-0.77344 0.61914,-0.77344 l 0.92773,-0.0449 0.31055,-0.48633 -0.31055,-1.28125 c 0,0 0.64207,-0.39844 0.73047,-0.39844 h 0.002 0.002 c 0.11887,-0.0484 0.90039,-1.08203 0.90039,-1.08203 l 0.64062,-0.88281 c 0,0 0.48778,-0.73058 0.57618,-0.79688 0.0884,-0.0663 0.24303,-0.3303 0.35351,-0.46289 0.11049,-0.13258 0.61803,-0.72996 0.72852,-0.81836 0.11048,-0.0884 0.10959,-0.57456 0.24218,-0.77344 0.13258,-0.19887 0.68555,0 0.68555,0 0,0 0.19922,-0.68444 0.19922,-0.79492 0,-0.11049 0.66211,-1.12695 0.66211,-1.12695 0,0 0.8192,-0.55284 0.92969,-0.61914 0.11049,-0.0663 0.94922,-0.92774 0.94922,-0.92774 0,0 0.55296,-0.79576 0.68554,-0.90625 0.13259,-0.11049 1.16992,-0.90625 1.16992,-0.90625 l 0.83985,-0.86132 c 0,0 0.70925,-0.60987 0.79101,-0.62891 h 0.002 0.002 c 0.0625,0 0.53125,-0.10935 0.64063,-0.15625 0.10937,-0.0469 0.56252,-0.5156 0.64062,-0.5625 0.0781,-0.0469 0.5,-0.17187 0.5,-0.17188 l 0.3125,-0.26562 0.40625,-0.64062 0.48437,-0.10938 c 0,0 0.45313,-0.875 0.45313,-1.07812 0,-0.20314 -0.10937,-0.82813 -0.10937,-0.89063 0,-0.0625 0.35937,-0.98438 0.35937,-0.98437 l 0.66602,-0.56641 c 0,0 1.12718,-0.22143 1.25976,-0.26563 0.13259,-0.0442 0.59655,-0.13291 0.70703,-0.19922 0.11049,-0.0663 0.41992,-0.5957 0.41992,-0.5957 l 0.95118,0.043 1.16992,-0.35351 0.90625,-0.66211 0.88476,0.15429 1.10547,-0.97265 -0.13281,-1.08203 -0.11133,-1.06055 -0.68554,-0.44141 -0.41993,-0.73047 c 0,0 -0.50802,-0.7059 -0.60742,-0.7832 -0.0994,-0.0773 -0.36349,-0.3759 -0.46289,-0.51953 -0.0994,-0.14364 -0.27683,-0.79588 -0.36523,-0.97266 -0.0884,-0.17677 -0.3529,-1.03917 -0.375,-1.10547 -0.0221,-0.0663 -0.1875,-0.83984 -0.1875,-0.83984 0,0 -0.64081,-1.24953 -0.79493,-1.31836 -10e-4,-4e-4 -0.005,-0.002 -0.006,-0.002 -0.13842,-0.0307 -0.92911,0.74889 -1.08789,0.76562 -0.001,4e-5 -0.005,6e-5 -0.006,0 -0.57813,-0.25777 -1.09376,-0.23437 -1.09376,-0.23437 1e-5,0 -0.96873,-0.14848 -1.02343,-0.17188 -0.0547,-0.0234 -0.21092,-0.1797 -0.25781,-0.25 -0.0469,-0.0703 -0.0859,-0.28125 -0.14063,-0.47656 -0.0546,-0.19531 -0.0234,-0.67188 -0.0234,-0.88281 0,-0.21094 0.0312,-0.5313 0.14844,-0.625 l 0.002,-0.002 c 0.0975,-0.12484 -0.36139,-1.26438 -0.35351,-1.31054 v -0.002 -0.002 h -0.002 l -0.002,-0.002 h -0.002 c -0.0707,-0.0149 -0.56445,0.12304 -0.56445,0.12304 l -0.77344,0.19532 -0.45313,-0.27344 -0.22656,-0.51562 -0.21289,-0.0527 c 0,0 -0.62963,-0.25488 -0.67383,-0.27148 -0.0442,-0.0166 -0.625,-0.30274 -0.625,-0.30274 l -0.44141,-0.31445 c 1e-5,0 -0.28544,0.13857 -0.31835,0.1875 -4e-4,7.4e-4 -0.002,0.005 -0.002,0.006 -0.0166,0.0442 -0.15013,0.14915 -0.17773,0.16015 -0.0276,0.011 -0.46911,0.44738 -0.50781,0.51368 -0.0538,0.0686 -0.59658,0.24307 -0.6836,0.2539 -0.0884,0.011 -0.61328,0.50196 -0.61328,0.50196 0,0 -0.48658,0.81641 -0.49414,0.92382 v 0.002 0.002 c 0.008,0.0859 -0.0779,0.77344 -0.0859,0.94531 -0.008,0.17188 -0.15628,0.8125 -0.17969,0.95313 -0.0234,0.14062 -0.15628,1 -0.17968,1.22656 -0.0235,0.22656 -0.0938,0.96094 -0.11719,1.19531 -0.0234,0.23438 -0.13284,0.75005 -0.14844,0.84375 -0.0156,0.0937 -0.40628,0.89068 -0.42969,0.92188 -0.0234,0.0312 -0.67559,0.66019 -0.68359,0.67969 -0.008,0.0195 -0.18755,0.26953 -0.21875,0.33203 -0.0312,0.0625 -0.25784,0.59762 -0.27734,0.64062 -0.0195,0.043 -0.37893,0.51956 -0.39063,0.53906 -0.0117,0.0195 -0.3164,0.75391 -0.3164,0.75391 l -0.58985,0.19531 -0.8164,-0.0312 -1.04297,-0.27344 c 0,0 -0.36719,-0.19137 -0.48438,-0.23437 -0.11719,-0.043 -0.28902,-0.19918 -0.32812,-0.23828 -0.0391,-0.0391 -0.50393,-0.25784 -0.51563,-0.27344 -0.0117,-0.0156 -0.52344,-0.19922 -0.52344,-0.19922 1e-5,0 -0.55078,-0.37502 -0.55078,-0.39062 0,-0.0156 -0.97265,-0.3711 -0.97265,-0.3711 l -0.28516,-0.35156 -0.27344,-0.20703 c 0,0 -0.27148,-0.82176 -0.27148,-0.91016 0,-0.0884 0.0439,-0.22055 0.0605,-0.31445 0.0166,-0.0939 0.0156,-0.38682 0.0156,-0.41992 0,-0.0331 -0.0215,-0.32078 -0.0215,-0.39258 0,-0.0718 -0.10547,-0.39844 -0.10547,-0.39844 l -0.55664,-0.16601 -0.31055,-0.17578 -0.41992,-0.42578 c 0,0 -0.44151,-0.30932 -0.47461,-0.35352 l -0.002,-0.002 c -0.0593,-0.0564 -0.5293,-0.31836 -0.5293,-0.31836 0,0 -0.55162,-0.29832 -0.66211,-0.35352 -0.11048,-0.0553 -0.27562,-0.13364 -0.4082,-0.21094 -0.13259,-0.0773 -0.44347,-0.29759 -0.47657,-0.34179 -0.0331,-0.0442 -0.0644,-0.17735 -0.0976,-0.33203 -0.0331,-0.15468 -0.13354,-0.2312 -0.17774,-0.27539 -8.8e-4,-6.5e-4 -0.005,-0.003 -0.006,-0.004 -0.0786,-0.0357 -0.51367,-0.008 -0.51367,-0.008 l -0.2207,-0.29688 c 0,0 -0.0781,-0.50853 -0.0781,-0.55273 0,-0.0442 -0.17578,-0.73047 -0.17578,-0.73047 l -0.0332,-0.76758 c 0,0 -0.0389,-0.46095 -0.0469,-0.53125 -0.008,-0.0703 -3e-5,-0.11719 -0.0156,-0.32813 -0.0154,-0.20762 0.15105,-0.43835 0.15625,-0.49023 v -0.002 c 0,-0.0469 0.0781,-0.29689 0.14062,-0.36719 9.8e-4,-10e-4 0.003,-0.003 0.004,-0.004 0.0759,-0.053 0.40564,0.0803 0.46094,0.082 h 0.002 0.002 0.002 c 0.0479,-0.0209 0.24881,-0.24322 0.27148,-0.27344 0.0234,-0.0312 0.15625,-0.39063 0.15625,-0.39063 0,0 0.1094,-0.27344 0.125,-0.33593 v -0.002 -0.002 l 0.002,-0.002 0.002,-0.002 c 0.0597,-0.0559 0.44141,-0.0937 0.44141,-0.0937 l 0.45117,-0.48828 c 0,0 0.099,-0.26635 0.12109,-0.31055 l 0.002,-0.002 0.002,-0.002 0.002,-0.002 c 0.0546,-0.0437 0.34766,-0.10351 0.34766,-0.10351 0,0 0.39926,-0.12244 0.47656,-0.17773 0.0773,-0.0552 0.1764,-0.2534 0.1875,-0.3418 0.0111,-0.0884 0.1543,-0.44141 0.1543,-0.44141 0,0 0.29772,-0.10033 0.4082,-0.14453 0.11049,-0.0442 0.32031,-0.27539 0.32031,-0.27539 l 0.39844,-0.38672 c 0,0 0.16558,-0.20006 0.28711,-0.31055 0.12153,-0.11048 0.375,-0.375 0.375,-0.375 0,0 0.32183,-0.54235 0.44336,-0.59765 0.12154,-0.0552 0.65068,-0.01 0.8164,-0.01 0.16573,0 0.50926,-0.13219 0.56446,-0.15429 0.0552,-0.0221 0.24167,-0.25474 0.29687,-0.33204 0.0552,-0.0773 0.25535,-0.28661 0.31055,-0.374996 0.0552,-0.08839 0.34135,-0.112113 0.46289,-0.189453 0.12153,-0.07734 0.86296,-0.08861 1.05078,-0.132812 0.18783,-0.04419 0.44141,-0.07617 0.44141,-0.07617 0,0 0.38621,-0.254807 0.47461,-0.398438 0.0884,-0.143631 0.0886,-0.286557 0.13281,-0.341797 l 0.002,-0.002 c 0.0629,-0.05098 0.43201,-0.06452 0.53906,-0.08594 0.11049,-0.0221 0.98438,0.121094 0.98438,0.121094 0,0 0.47161,-0.385663 0.48633,-0.460938 v -0.002 -0.002 c 0,-0.06629 -0.0664,-0.265185 -0.0996,-0.386719 -0.0332,-0.121532 0.46289,-0.208984 0.46289,-0.208984 0,0 0.39805,-0.24303 0.55273,-0.353516 0.15468,-0.110485 0.27735,-0.365234 0.27735,-0.365234 l -0.0566,-0.496094 0.42968,-0.789063 c 0,0 -0.12412,-0.441005 -1.35351,0.25586 -1.44115,0.816898 -0.84375,0.476562 -0.84375,0.476562 l -0.74024,-0.496093 -1.39062,-0.332032 -1.99024,-0.199218 h -1.48046 l -1.61329,0.02148 c 0,0 -1.01546,0.222157 -1.30273,0.310547 -0.28726,0.08839 -0.52976,0.221435 -0.79492,0.265625 -0.26517,0.04419 -0.39844,0.486328 -0.39844,0.486328 l -0.81836,0.375 -1.32422,-0.08789 -1.25976,0.263672 -1.06055,-0.06641 c 0,0 -0.44274,-0.19761 -0.46484,-0.396484 -0.0221,-0.198874 -0.41993,-0.53125 -0.41993,-0.53125 l -0.86132,-0.353516 -1.17188,-0.02148 -0.88281,-0.177735 c 0,0 -0.30993,-0.308094 -0.33203,-0.396484 -0.0221,-0.08839 -0.35352,-0.28711 -0.35352,-0.287109 l -0.72851,-0.177735 -0.83985,0.02148 -0.77344,-0.154297 -1.06054,0.177734 -0.26563,-0.574219 -0.53125,-0.707031 0.35352,-1.414063 0.0684,-0.802734 c 5.16642,-1.179117 13.37968,-2.808979 18.89648,-3.11914 9.76709,-0.549121 22.74014,3.367864 30.99414,6.980468 8.254,3.473656 15.0262,7.857924 20.07032,14.527344 l 14.90429,-13.546875 c -7.18404,-8.33678 -16.12654,-14.727546 -26.82617,-19.173828 -10.69963,-4.446282 -22.39337,-6.669922 -35.08008,-6.669922 z m -43.58594,33.367185 0.17188,0.55469 c 0,0 0.5,1.03125 0.75,1.5 0.25,0.46875 -0.1875,1.4375 -0.1875,1.875 0,0.4375 0.0312,1.3125 0.0312,1.4375 0,0.125 0.59375,1.125 0.59375,1.125 0,0 0.25005,1.75 0.28125,2.09375 0.0313,0.34375 -0.0937,2.125 -0.0937,2.125 l 0.23047,2.38672 c 0,0 0.15368,1.56736 0.17578,1.74414 0.0221,0.17677 0.067,1.39315 0.0449,1.72461 -0.0221,0.33146 -0.0449,1.59068 -0.0449,1.70117 0,0.11048 -0.77344,1.90039 -0.77344,1.90039 l -0.30859,1.30469 c 0,0 -0.77416,1.56882 -0.81836,1.83398 -0.0442,0.26517 -0.50781,2.47485 -0.50781,2.60742 0,0.13258 -0.41993,2.09766 -0.41993,2.09766 l -0.45312,1.54297 c 0,0 -0.0937,1.125 -0.0937,1.25 0,0.125 0.3125,1.59375 0.375,1.90625 0.0624,0.3125 0.0312,1.5625 0.0312,1.6875 0,0.125 0.46875,1.90625 0.46875,1.90625 L 138.1875,142 c 0,0 1.0312,0.96875 1.21875,1.21875 0.1875,0.25 0.75,0.93755 0.90625,1.03125 0.15625,0.0937 0.75,0.71875 0.875,0.9375 0.125,0.21875 0.71875,1.0625 0.71875,1.0625 0,0 1.34375,1.40625 1.46875,1.5625 0.125,0.15625 0.96875,0.84375 1.125,1.03125 0.15625,0.1875 1,1.0625 1,1.0625 l 1.1875,1.15625 0.375,1.78125 c 0,0 0.78125,0.65625 1,0.90625 0.21875,0.25 0.15625,1.0625 0.15625,1.25 0,0.1875 0.21875,1.09375 0.0937,1.4375 -0.125,0.34375 0.15625,0.71875 0.15625,0.71875 0,0 0.71875,1.5 1.21875,1.8125 0.5,0.3125 0.75,0.75 0.75,0.75 0,0 1.9375,0.4688 2.34375,0.5 0.40625,0.0312 0.28125,-0.0312 0.59375,0 0.3125,0.0312 0.6252,0.40614 0.71875,0.59375 0.0937,0.1875 0.5,0.34375 0.90625,0.59375 0.40625,0.25 1.34375,0.4375 1.65625,0.5 0.3125,0.0625 0.96875,-0.43755 1.09375,-0.46875 0.125,-0.0313 1.03125,0.0937 1.03125,0.0937 0,0 0.625,0.625 0.84375,0.8125 0.21875,0.1875 0.53125,0.59375 0.53125,0.59375 0,0 1.3125,0.75 1.875,0.9375 0.5625,0.18755 0.8125,0.15625 1.28125,0.21875 0.46875,0.0625 1.5625,0.0937 1.5625,0.0937 l 0.78125,0.6875 1.03125,0.8125 c 0,0 0.14622,1.40989 0.36719,1.63086 0.22097,0.22097 1.54492,2.34375 1.54492,2.34375 l 0.88477,0.61719 1.23828,0.70703 1.41406,0.26562 c 0,0 1.59076,0.57564 2.12109,1.01758 0.53033,0.44194 1.06055,1.89939 1.06055,2.07617 0,0.17677 0.0447,0.70772 -0.0879,1.10547 -0.1326,0.39775 -0.0449,0.70703 -0.0449,0.70703 0,0 -0.92846,1.10521 -0.97266,1.32618 -0.0442,0.22096 -0.0442,0.30951 0,0.83984 0.0442,0.53033 -0.26511,1.63443 -0.35351,2.5625 -0.0884,0.92808 -0.0879,1.01631 -0.0879,1.41406 0,0.39774 -0.0444,0.88423 -0.13281,1.32617 -0.0884,0.44194 0.13354,1.85666 0.17774,2.16602 0.0442,0.30936 0.0881,0.57345 0.2207,0.88281 0.13258,0.30936 0.26536,0.7075 0.48633,0.97266 0.22097,0.26517 0.74973,1.2817 0.9707,1.54687 0.22097,0.26516 0.66281,0.8835 1.06055,1.28125 0.39775,0.39775 0.48678,0.53149 0.75195,0.66406 0.26516,0.1326 1.45845,0.17555 1.90039,0.043 0.44195,-0.13259 0.61838,0.13305 0.92774,0.26563 0.30936,0.13258 1.0615,1.01731 1.23828,1.23828 0.17678,0.22097 0.53025,0.35301 0.70703,0.44141 0.17677,0.0884 -0.17774,1.10546 -0.17774,1.10547 l 0.26563,1.01562 c 0,0 0.0449,0.66355 0.39844,0.75195 0.35356,0.0884 0.52929,0.22071 0.52929,0.22071 l 0.22071,1.10351 0.0898,0.79688 -0.35352,1.50195 0.16016,0.47266 c -1.33926,0.0308 -2.69646,0.0449 -4.07031,0.0449 -11.00534,0 -21.3817,-1.79927 -29.94141,-6.52344 -8.55971,-4.72417 -16.57893,-11.81752 -21.62305,-20.1543 -5.04411,-8.33677 -8.14062,-18.25957 -8.14062,-29.23632 0,-10.83782 2.70639,-21.15932 7.59766,-29.4961 3.20814,-5.30233 6.45688,-8.23073 10.35546,-11.06836 z" />
<path
   d="m 356.53202,72.802661 v 18.04413 h -41.11013 q -23.45832,0 -23.45832,16.813849 0,9.02207 10.21946,15.37852 10.45173,6.15141 28.10354,11.89272 7.89686,2.66561 13.47112,5.53627 5.57425,2.66561 11.14851,7.17664 5.57425,4.51104 8.36138,11.68768 2.78713,6.9716 2.78713,16.19871 0,10.25233 -4.87747,18.45421 -4.87748,7.99683 -12.54208,12.71291 -7.6646,4.51103 -15.79372,6.9716 -7.89686,2.25551 -15.56146,2.46056 -3.25165,0.20505 -9.29043,0.20505 h -36.23266 v -18.04413 h 35.53588 q 15.79372,0 25.78093,-5.74132 9.98721,-5.94636 9.98721,-17.22393 0,-5.53627 -2.78713,-9.63721 -2.78713,-4.30598 -8.12912,-7.38169 -5.10974,-3.0757 -10.68399,-5.33122 -5.342,-2.25551 -13.0066,-4.71607 -2.09035,-0.61515 -3.25165,-1.02524 -36.46492,-12.30282 -36.46492,-40.1892 0,-17.223944 12.54208,-25.630868 12.54207,-8.611971 32.74875,-8.611971 z m 117.0593,0 v 18.04413 h -41.11013 q -23.45833,0 -23.45833,16.813849 0,9.02207 10.21947,15.37852 10.45173,6.15141 28.10354,11.89272 7.89686,2.66561 13.47112,5.53627 5.57425,2.66561 11.14851,7.17664 5.57425,4.51104 8.36138,11.68768 2.78713,6.9716 2.78713,16.19871 0,10.25233 -4.87748,18.45421 -4.87747,7.99683 -12.54207,12.71291 -7.6646,4.51103 -15.79372,6.9716 -7.89687,2.25551 -15.56147,2.46056 -3.25165,0.20505 -9.29042,0.20505 h -36.23266 v -18.04413 h 35.53588 q 15.79372,0 25.78093,-5.74132 9.9872,-5.94636 9.9872,-17.22393 0,-5.53627 -2.78712,-9.63721 -2.78713,-4.30598 -8.12913,-7.38169 -5.10973,-3.0757 -10.68398,-5.33122 -5.342,-2.25551 -13.0066,-4.71607 -2.09035,-0.61515 -3.25165,-1.02524 -36.46492,-12.30282 -36.46492,-40.1892 0,-17.223944 12.54207,-25.630868 12.54208,-8.611971 32.74875,-8.611971 z"
   id="text9"
   style="font-size:218.23px;font-family:Baumans;-inkscape-font-specification:'Baumans, @wght=116';font-variation-settings:'wght' 116;display:inline;fill:#123852;stroke:#123852;stroke-width:1"
   aria-label="SS" />
</g>
  </g>
  <g
     id="text6"
     style="opacity:1"
     transform="matrix(1.0488464,0,0,0.95342846,-99.083984,-69.795855)" />
</svg>
