<?xml version="1.0" encoding="UTF-8" standalone="no"?>
<!-- Created with Inkscape (http://www.inkscape.org/) -->

<svg
   version="1.1"
   id="svg1"
   width="67.116814"
   height="64.1325"
   viewBox="0 0 156.78488 82.0896"
   sodipodi:docname="GSS_Icon__White.svg"
   inkscape:version="1.4.2 (f4327f4, 2025-05-13)"
   xmlns:inkscape="http://www.inkscape.org/namespaces/inkscape"
   xmlns:sodipodi="http://sodipodi.sourceforge.net/DTD/sodipodi-0.dtd"
   xmlns="http://www.w3.org/2000/svg"
   xmlns:svg="http://www.w3.org/2000/svg">
  <defs
     id="defs1" />
  <sodipodi:namedview
     id="namedview1"
     pagecolor="#505050"
     bordercolor="#eeeeee"
     borderopacity="1"
     inkscape:showpageshadow="0"
     inkscape:pageopacity="0"
     inkscape:pagecheckerboard="0"
     inkscape:deskcolor="#505050"
     inkscape:zoom="3.644"
     inkscape:cx="51.728869"
     inkscape:cy="97.008782"
     inkscape:window-width="958"
     inkscape:window-height="1153"
     inkscape:window-x="-8"
     inkscape:window-y="0"
     inkscape:window-maximized="0"
     inkscape:current-layer="layer3" />
  <g
     inkscape:groupmode="layer"
     id="layer3"
     inkscape:label="TRACE"
     transform="translate(-2.925916,95.709914)">
    <g
       id="g43"
       transform="translate(-96.158068,-199.36773)"
       style="mix-blend-mode:normal">
      <path
         id="path8"
         style="display:inline;fill:#ffffff;stroke:#ffffff"
         d="m 180.97656,70.296875 c -11.61674,0 -22.39275,1.080481 -32.32812,4.832031 -9.78252,3.751551 -18.34085,9.826397 -25.67774,16.634766 -7.33689,6.808369 -13.07026,14.728248 -17.19726,23.759768 -4.127,8.89256 -6.189456,18.54973 -6.189456,28.9707 0,10.42097 2.062456,20.14817 6.189456,29.17969 4.127,9.03151 9.78275,16.9514 16.96679,23.75976 7.33689,6.80837 15.82151,12.15639 25.45118,16.04688 9.78251,3.75155 20.25197,5.62891 31.41015,5.62891 14.82663,0 27.97166,-2.85008 39.43555,-8.54688 11.61674,-5.6968 20.63491,-14.17113 27.05469,-25.42578 6.57262,-11.3936 8.02655,-23.6297 8.79882,-34.44336 l 0.44141,-6.1875 -59.48047,-0.17774 v 18.10157 l 26.02539,0.043 11.83399,0.0293 c -1.14906,6.55734 -2.23779,10.2979 -5.875,15.59766 -2.57656,2.99529 -11.10733,13.37708 -19.36133,17.26758 -0.90465,0.43444 -1.83455,0.83092 -2.78711,1.19336 l -0.18555,-0.33789 -0.48633,-0.79688 -0.13085,-1.54687 c 0,0 0.35228,-1.28026 0.39648,-1.45703 0.0442,-0.17678 0.92773,-0.53126 0.92773,-0.53126 0,1e-5 0.61864,-0.57467 0.70704,-0.83984 0.0884,-0.26516 0.0898,-1.19336 0.0898,-1.19336 l 1.32617,-0.92773 c 0,0 0.13086,-0.88423 0.13086,-1.32617 0,-0.44194 0.83984,-1.19336 0.83984,-1.19336 l 1.15039,-0.57422 0.043,-1.36914 1.01758,-1.63477 c 0,0 0.0882,-1.54829 -0.13281,-1.99023 -0.22097,-0.44194 -0.39844,-0.83985 -0.39844,-0.83985 0,0 -0.83858,-0.53002 -1.23633,-0.57422 -0.39775,-0.0442 -0.83949,0.17774 -1.76757,0.17774 -0.92808,0 -1.01682,-5.1e-4 -1.32618,0.0879 -0.30936,0.0884 -1.99023,-0.5293 -1.99023,-0.5293 l -0.88281,-0.83984 c 0,0 -1.85666,-1.15012 -2.16602,-1.3711 -0.30936,-0.22096 -1.41402,-0.61788 -1.76758,-1.01562 -0.35355,-0.39775 0.0442,-0.44309 0,-0.66406 -0.0442,-0.22097 -0.48632,-1.50196 -0.48632,-1.50196 0,0 -1.19355,-0.48678 -1.67969,-0.75195 -0.48614,-0.26516 -0.74974,-0.66306 -0.97071,-0.83984 -0.22097,-0.17678 -1.59225,-0.61815 -1.85742,-0.79492 -0.26516,-0.17678 -1.36887,-0.35301 -1.58984,-0.44141 -0.22097,-0.0884 -1.72461,-1.10547 -1.72461,-1.10547 0,0 -2.07637,-0.48534 -2.5625,-0.66211 -0.48614,-0.17678 -0.88446,-0.35496 -1.45899,-0.44336 -0.57453,-0.0884 -1.81123,-0.30808 -2.20898,-0.39648 -0.39775,-0.0884 -1.50337,-0.13377 -1.94531,-0.31055 -0.44194,-0.17678 -1.36914,-0.44141 -1.36914,-0.44141 l -2.25391,0.35352 -1.67969,0.13281 c 0,0 -0.57441,0.1777 -1.06054,0.53125 -0.48614,0.35356 -1.32617,0.17578 -1.32617,0.17578 -1e-5,0 -0.39844,1.2373 -0.39844,1.41407 0,0.17678 0.13281,1.32617 0.13281,1.32617 l -0.5293,-0.17578 c 0,0 -0.57464,-0.13305 -1.19336,-0.26563 -0.61872,-0.13259 -0.88476,-0.70703 -0.88476,-0.70703 l -1.19336,-0.17773 c 0,0 -0.97289,-0.88377 -1.10547,-1.06055 -0.13258,-0.17677 -0.57422,-0.66211 -0.57422,-0.66211 0,0 -0.0112,-1.10502 -0.0664,-1.22656 -0.0553,-0.12153 -0.41941,-0.75152 -0.47461,-0.87305 -0.0552,-0.12154 -0.0879,-0.59721 -0.0879,-0.71875 0,-0.12153 0.0762,-0.67383 0.0762,-0.67383 0,0 -0.3574,-1.41411 -0.4043,-1.50781 -0.0469,-0.0937 -0.21875,-0.51563 -0.21875,-0.625 0,-0.10938 -0.125,-0.5625 -0.26562,-0.625 -0.14063,-0.0625 -1.28126,-0.46877 -1.40626,-0.48437 -0.125,-0.0157 -0.85937,-0.0469 -1.23437,-0.0469 -0.375,0 -0.71875,0.0469 -0.78125,0.0312 h -0.002 c -0.0771,-0.0372 -0.63921,-0.75195 -0.66993,-0.875 -0.0313,-0.125 -0.0313,-0.48437 0.0156,-0.76563 0.0469,-0.28124 -0.0937,-1.1875 -0.20313,-1.32812 -0.10937,-0.1406 -0.75,-0.0156 -0.85937,-0.0156 h -0.002 c -0.11624,0.0232 -0.50243,0.77074 -0.7793,1.09374 -0.28125,0.32815 -0.28125,0.0938 -0.39062,0.0469 -0.10938,-0.0469 -0.59376,-0.37498 -0.8125,-0.35938 -0.21876,0.0156 -1.04688,-0.0781 -1.04688,-0.0781 0,0 -0.4844,-0.40625 -0.5,-0.65625 -0.0154,-0.24609 -1.01462,-0.5989 -1.10547,-0.58008 l -0.002,0.002 h -0.002 c -0.0625,0.0312 -0.28124,0.0625 -0.5625,0.0938 -0.28124,0.0312 -0.9375,-0.17188 -0.9375,-0.17188 0,0 -0.2656,-0.42188 -0.25,-0.54688 0.0156,-0.125 -0.57812,-0.71874 -0.57812,-0.71874 0,0 -0.67185,-0.5625 -0.71875,-0.625 -0.0469,-0.0625 -0.42185,-0.56251 -0.46875,-0.67188 -0.0469,-0.10938 -0.25,-1.0625 -0.25,-1.17188 v -0.98437 c 0,-0.125 0.0312,-1.0625 0.0312,-1.0625 0,0 0.42192,-0.78125 0.51563,-0.96875 0.0937,-0.1875 0.34377,-0.67188 0.42187,-0.92188 0.0781,-0.25 0.23442,-0.84374 0.26563,-1 0.0312,-0.15624 0.65624,-0.62504 0.8125,-0.71874 0.15624,-0.0938 0.42187,-0.26563 0.75,-0.375 0.32812,-0.10938 0.84377,-0.79688 0.92187,-0.92188 0.0781,-0.12498 0.28125,-0.0782 0.54687,-0.17188 0.26563,-0.0937 0.95313,-0.26557 1.1875,-0.23437 0.22706,0.0303 0.87971,-0.11568 0.9629,-0.18164 0.001,-0.001 0.005,-0.005 0.006,-0.006 0.0469,-0.0625 0.67187,-0.60937 0.84374,-0.73437 0.17188,-0.12499 0.85938,0.0469 0.85938,0.0469 0,0 1.3125,-0.2188 1.42188,-0.25 0.10937,-0.0312 0.45314,-0.25002 0.53124,-0.26563 0.0781,-0.0156 0.65626,-0.17192 0.71876,-0.20312 0.0625,-0.0312 0.40624,-0.26567 0.73437,-0.29688 0.32812,-0.0313 0.45313,-0.0938 0.57813,-0.10937 0.125,-0.0157 0.70312,0.12495 0.85937,0.0937 0.15622,-0.0312 0.12502,0.125 0.20313,0.25 0.0781,0.125 0.37499,0.42192 0.48437,0.45312 0.10937,0.0312 0.4375,5e-5 0.57813,0.0313 0.14062,0.0312 0.73437,-0.0625 0.85937,-0.10938 0.125,-0.0469 0.5625,0.10938 0.5625,0.10938 0,0 0.23442,0.42187 0.26563,0.48437 0.0312,0.0625 0.17187,0.45313 0.23437,0.6875 0.0625,0.23438 0.0469,0.6875 0.0469,0.8125 0,0.125 0.10938,0.60937 0.10938,0.73437 0,0.12501 0.0469,0.375 0.17188,0.5625 0.125,0.1875 0.42187,0.625 0.42187,0.625 l 0.32813,0.46876 c 0,0 0.53003,0.54472 0.62109,0.54687 h 0.002 0.002 0.002 l 0.002,-0.002 h 0.002 c 0.0884,-0.0637 0.36914,-0.85743 0.36915,-0.85742 l -0.0156,-0.95313 -0.0937,-0.625 C 173.0416,148.20469 173,147.4375 173,147.375 c 0,-0.0625 -0.13477,-1.44676 -0.13477,-1.53516 0,-0.0884 0.0228,-0.35251 0.0449,-0.52929 0.0221,-0.17677 0.1323,-0.44236 0.2207,-0.61914 0.0884,-0.17677 0.2207,-0.61914 0.2207,-0.61914 l 0.5293,-0.13282 c 0,0 0.22132,-0.64035 0.19922,-0.86133 -0.0221,-0.22096 0,-0.5737 0,-0.6621 0.01,-0.0969 0.61914,-0.77344 0.61914,-0.77344 l 0.92773,-0.0449 0.31055,-0.48633 -0.31055,-1.28125 c 0,0 0.64207,-0.39844 0.73047,-0.39844 h 0.002 0.002 c 0.11887,-0.0484 0.90039,-1.08203 0.90039,-1.08203 l 0.64062,-0.88281 c 0,0 0.48778,-0.73058 0.57618,-0.79688 0.0884,-0.0663 0.24303,-0.3303 0.35351,-0.46289 0.11049,-0.13258 0.61803,-0.72996 0.72852,-0.81836 0.11048,-0.0884 0.10959,-0.57456 0.24218,-0.77344 0.13258,-0.19887 0.68555,0 0.68555,0 0,0 0.19922,-0.68444 0.19922,-0.79492 0,-0.11049 0.66211,-1.12695 0.66211,-1.12695 0,0 0.8192,-0.55284 0.92969,-0.61914 0.11049,-0.0663 0.94922,-0.92774 0.94922,-0.92774 0,0 0.55296,-0.79576 0.68554,-0.90625 0.13259,-0.11049 1.16992,-0.90625 1.16992,-0.90625 l 0.83985,-0.86132 c 0,0 0.70925,-0.60987 0.79101,-0.62891 h 0.002 0.002 c 0.0625,0 0.53125,-0.10935 0.64063,-0.15625 0.10937,-0.0469 0.56252,-0.5156 0.64062,-0.5625 0.0781,-0.0469 0.5,-0.17187 0.5,-0.17188 l 0.3125,-0.26562 0.40625,-0.64062 0.48437,-0.10938 c 0,0 0.45313,-0.875 0.45313,-1.07812 0,-0.20314 -0.10937,-0.82813 -0.10937,-0.89063 0,-0.0625 0.35937,-0.98438 0.35937,-0.98437 l 0.66602,-0.56641 c 0,0 1.12718,-0.22143 1.25976,-0.26563 0.13259,-0.0442 0.59655,-0.13291 0.70703,-0.19922 0.11049,-0.0663 0.41992,-0.5957 0.41992,-0.5957 l 0.95118,0.043 1.16992,-0.35351 0.90625,-0.66211 0.88476,0.15429 1.10547,-0.97265 -0.13281,-1.08203 -0.11133,-1.06055 -0.68554,-0.44141 -0.41993,-0.73047 c 0,0 -0.50802,-0.7059 -0.60742,-0.7832 -0.0994,-0.0773 -0.36349,-0.3759 -0.46289,-0.51953 -0.0994,-0.14364 -0.27683,-0.79588 -0.36523,-0.97266 -0.0884,-0.17677 -0.3529,-1.03917 -0.375,-1.10547 -0.0221,-0.0663 -0.1875,-0.83984 -0.1875,-0.83984 0,0 -0.64081,-1.24953 -0.79493,-1.31836 -10e-4,-4e-4 -0.005,-0.002 -0.006,-0.002 -0.13842,-0.0307 -0.92911,0.74889 -1.08789,0.76562 -0.001,4e-5 -0.005,6e-5 -0.006,0 -0.57813,-0.25777 -1.09376,-0.23437 -1.09376,-0.23437 1e-5,0 -0.96873,-0.14848 -1.02343,-0.17188 -0.0547,-0.0234 -0.21092,-0.1797 -0.25781,-0.25 -0.0469,-0.0703 -0.0859,-0.28125 -0.14063,-0.47656 -0.0546,-0.19531 -0.0234,-0.67188 -0.0234,-0.88281 0,-0.21094 0.0312,-0.5313 0.14844,-0.625 l 0.002,-0.002 c 0.0975,-0.12484 -0.36139,-1.26438 -0.35351,-1.31054 v -0.002 -0.002 h -0.002 l -0.002,-0.002 h -0.002 c -0.0707,-0.0149 -0.56445,0.12304 -0.56445,0.12304 l -0.77344,0.19532 -0.45313,-0.27344 -0.22656,-0.51562 -0.21289,-0.0527 c 0,0 -0.62963,-0.25488 -0.67383,-0.27148 -0.0442,-0.0166 -0.625,-0.30274 -0.625,-0.30274 l -0.44141,-0.31445 c 1e-5,0 -0.28544,0.13857 -0.31835,0.1875 -4e-4,7.4e-4 -0.002,0.005 -0.002,0.006 -0.0166,0.0442 -0.15013,0.14915 -0.17773,0.16015 -0.0276,0.011 -0.46911,0.44738 -0.50781,0.51368 -0.0538,0.0686 -0.59658,0.24307 -0.6836,0.2539 -0.0884,0.011 -0.61328,0.50196 -0.61328,0.50196 0,0 -0.48658,0.81641 -0.49414,0.92382 v 0.002 0.002 c 0.008,0.0859 -0.0779,0.77344 -0.0859,0.94531 -0.008,0.17188 -0.15628,0.8125 -0.17969,0.95313 -0.0234,0.14062 -0.15628,1 -0.17968,1.22656 -0.0235,0.22656 -0.0938,0.96094 -0.11719,1.19531 -0.0234,0.23438 -0.13284,0.75005 -0.14844,0.84375 -0.0156,0.0937 -0.40628,0.89068 -0.42969,0.92188 -0.0234,0.0312 -0.67559,0.66019 -0.68359,0.67969 -0.008,0.0195 -0.18755,0.26953 -0.21875,0.33203 -0.0312,0.0625 -0.25784,0.59762 -0.27734,0.64062 -0.0195,0.043 -0.37893,0.51956 -0.39063,0.53906 -0.0117,0.0195 -0.3164,0.75391 -0.3164,0.75391 l -0.58985,0.19531 -0.8164,-0.0312 -1.04297,-0.27344 c 0,0 -0.36719,-0.19137 -0.48438,-0.23437 -0.11719,-0.043 -0.28902,-0.19918 -0.32812,-0.23828 -0.0391,-0.0391 -0.50393,-0.25784 -0.51563,-0.27344 -0.0117,-0.0156 -0.52344,-0.19922 -0.52344,-0.19922 1e-5,0 -0.55078,-0.37502 -0.55078,-0.39062 0,-0.0156 -0.97265,-0.3711 -0.97265,-0.3711 l -0.28516,-0.35156 -0.27344,-0.20703 c 0,0 -0.27148,-0.82176 -0.27148,-0.91016 0,-0.0884 0.0439,-0.22055 0.0605,-0.31445 0.0166,-0.0939 0.0156,-0.38682 0.0156,-0.41992 0,-0.0331 -0.0215,-0.32078 -0.0215,-0.39258 0,-0.0718 -0.10547,-0.39844 -0.10547,-0.39844 l -0.55664,-0.16601 -0.31055,-0.17578 -0.41992,-0.42578 c 0,0 -0.44151,-0.30932 -0.47461,-0.35352 l -0.002,-0.002 c -0.0593,-0.0564 -0.5293,-0.31836 -0.5293,-0.31836 0,0 -0.55162,-0.29832 -0.66211,-0.35352 -0.11048,-0.0553 -0.27562,-0.13364 -0.4082,-0.21094 -0.13259,-0.0773 -0.44347,-0.29759 -0.47657,-0.34179 -0.0331,-0.0442 -0.0644,-0.17735 -0.0976,-0.33203 -0.0331,-0.15468 -0.13354,-0.2312 -0.17774,-0.27539 -8.8e-4,-6.5e-4 -0.005,-0.003 -0.006,-0.004 -0.0786,-0.0357 -0.51367,-0.008 -0.51367,-0.008 l -0.2207,-0.29688 c 0,0 -0.0781,-0.50853 -0.0781,-0.55273 0,-0.0442 -0.17578,-0.73047 -0.17578,-0.73047 l -0.0332,-0.76758 c 0,0 -0.0389,-0.46095 -0.0469,-0.53125 -0.008,-0.0703 -3e-5,-0.11719 -0.0156,-0.32813 -0.0154,-0.20762 0.15105,-0.43835 0.15625,-0.49023 v -0.002 c 0,-0.0469 0.0781,-0.29689 0.14062,-0.36719 9.8e-4,-10e-4 0.003,-0.003 0.004,-0.004 0.0759,-0.053 0.40564,0.0803 0.46094,0.082 h 0.002 0.002 0.002 c 0.0479,-0.0209 0.24881,-0.24322 0.27148,-0.27344 0.0234,-0.0312 0.15625,-0.39063 0.15625,-0.39063 0,0 0.1094,-0.27344 0.125,-0.33593 v -0.002 -0.002 l 0.002,-0.002 0.002,-0.002 c 0.0597,-0.0559 0.44141,-0.0937 0.44141,-0.0937 l 0.45117,-0.48828 c 0,0 0.099,-0.26635 0.12109,-0.31055 l 0.002,-0.002 0.002,-0.002 0.002,-0.002 c 0.0546,-0.0437 0.34766,-0.10351 0.34766,-0.10351 0,0 0.39926,-0.12244 0.47656,-0.17773 0.0773,-0.0552 0.1764,-0.2534 0.1875,-0.3418 0.0111,-0.0884 0.1543,-0.44141 0.1543,-0.44141 0,0 0.29772,-0.10033 0.4082,-0.14453 0.11049,-0.0442 0.32031,-0.27539 0.32031,-0.27539 l 0.39844,-0.38672 c 0,0 0.16558,-0.20006 0.28711,-0.31055 0.12153,-0.11048 0.375,-0.375 0.375,-0.375 0,0 0.32183,-0.54235 0.44336,-0.59765 0.12154,-0.0552 0.65068,-0.01 0.8164,-0.01 0.16573,0 0.50926,-0.13219 0.56446,-0.15429 0.0552,-0.0221 0.24167,-0.25474 0.29687,-0.33204 0.0552,-0.0773 0.25535,-0.28661 0.31055,-0.374996 0.0552,-0.08839 0.34135,-0.112113 0.46289,-0.189453 0.12153,-0.07734 0.86296,-0.08861 1.05078,-0.132812 0.18783,-0.04419 0.44141,-0.07617 0.44141,-0.07617 0,0 0.38621,-0.254807 0.47461,-0.398438 0.0884,-0.143631 0.0886,-0.286557 0.13281,-0.341797 l 0.002,-0.002 c 0.0629,-0.05098 0.43201,-0.06452 0.53906,-0.08594 0.11049,-0.0221 0.98438,0.121094 0.98438,0.121094 0,0 0.47161,-0.385663 0.48633,-0.460938 v -0.002 -0.002 c 0,-0.06629 -0.0664,-0.265185 -0.0996,-0.386719 -0.0332,-0.121532 0.46289,-0.208984 0.46289,-0.208984 0,0 0.39805,-0.24303 0.55273,-0.353516 0.15468,-0.110485 0.27735,-0.365234 0.27735,-0.365234 l -0.0566,-0.496094 0.42968,-0.789063 c 0,0 -0.12412,-0.441005 -1.35351,0.25586 -1.44115,0.816898 -0.84375,0.476562 -0.84375,0.476562 l -0.74024,-0.496093 -1.39062,-0.332032 -1.99024,-0.199218 h -1.48046 l -1.61329,0.02148 c 0,0 -1.01546,0.222157 -1.30273,0.310547 -0.28726,0.08839 -0.52976,0.221435 -0.79492,0.265625 -0.26517,0.04419 -0.39844,0.486328 -0.39844,0.486328 l -0.81836,0.375 -1.32422,-0.08789 -1.25976,0.263672 -1.06055,-0.06641 c 0,0 -0.44274,-0.19761 -0.46484,-0.396484 -0.0221,-0.198874 -0.41993,-0.53125 -0.41993,-0.53125 l -0.86132,-0.353516 -1.17188,-0.02148 -0.88281,-0.177735 c 0,0 -0.30993,-0.308094 -0.33203,-0.396484 -0.0221,-0.08839 -0.35352,-0.28711 -0.35352,-0.287109 l -0.72851,-0.177735 -0.83985,0.02148 -0.77344,-0.154297 -1.06054,0.177734 -0.26563,-0.574219 -0.53125,-0.707031 0.35352,-1.414063 0.0684,-0.802734 c 5.16642,-1.179117 13.37968,-2.808979 18.89648,-3.11914 9.76709,-0.549121 22.74014,3.367864 30.99414,6.980468 8.254,3.473656 15.0262,7.857924 20.07032,14.527344 l 14.90429,-13.546875 c -7.18404,-8.33678 -16.12654,-14.727546 -26.82617,-19.173828 -10.69963,-4.446282 -22.39337,-6.669922 -35.08008,-6.669922 z m -43.58594,33.367185 0.17188,0.55469 c 0,0 0.5,1.03125 0.75,1.5 0.25,0.46875 -0.1875,1.4375 -0.1875,1.875 0,0.4375 0.0312,1.3125 0.0312,1.4375 0,0.125 0.59375,1.125 0.59375,1.125 0,0 0.25005,1.75 0.28125,2.09375 0.0313,0.34375 -0.0937,2.125 -0.0937,2.125 l 0.23047,2.38672 c 0,0 0.15368,1.56736 0.17578,1.74414 0.0221,0.17677 0.067,1.39315 0.0449,1.72461 -0.0221,0.33146 -0.0449,1.59068 -0.0449,1.70117 0,0.11048 -0.77344,1.90039 -0.77344,1.90039 l -0.30859,1.30469 c 0,0 -0.77416,1.56882 -0.81836,1.83398 -0.0442,0.26517 -0.50781,2.47485 -0.50781,2.60742 0,0.13258 -0.41993,2.09766 -0.41993,2.09766 l -0.45312,1.54297 c 0,0 -0.0937,1.125 -0.0937,1.25 0,0.125 0.3125,1.59375 0.375,1.90625 0.0624,0.3125 0.0312,1.5625 0.0312,1.6875 0,0.125 0.46875,1.90625 0.46875,1.90625 L 138.1875,142 c 0,0 1.0312,0.96875 1.21875,1.21875 0.1875,0.25 0.75,0.93755 0.90625,1.03125 0.15625,0.0937 0.75,0.71875 0.875,0.9375 0.125,0.21875 0.71875,1.0625 0.71875,1.0625 0,0 1.34375,1.40625 1.46875,1.5625 0.125,0.15625 0.96875,0.84375 1.125,1.03125 0.15625,0.1875 1,1.0625 1,1.0625 l 1.1875,1.15625 0.375,1.78125 c 0,0 0.78125,0.65625 1,0.90625 0.21875,0.25 0.15625,1.0625 0.15625,1.25 0,0.1875 0.21875,1.09375 0.0937,1.4375 -0.125,0.34375 0.15625,0.71875 0.15625,0.71875 0,0 0.71875,1.5 1.21875,1.8125 0.5,0.3125 0.75,0.75 0.75,0.75 0,0 1.9375,0.4688 2.34375,0.5 0.40625,0.0312 0.28125,-0.0312 0.59375,0 0.3125,0.0312 0.6252,0.40614 0.71875,0.59375 0.0937,0.1875 0.5,0.34375 0.90625,0.59375 0.40625,0.25 1.34375,0.4375 1.65625,0.5 0.3125,0.0625 0.96875,-0.43755 1.09375,-0.46875 0.125,-0.0313 1.03125,0.0937 1.03125,0.0937 0,0 0.625,0.625 0.84375,0.8125 0.21875,0.1875 0.53125,0.59375 0.53125,0.59375 0,0 1.3125,0.75 1.875,0.9375 0.5625,0.18755 0.8125,0.15625 1.28125,0.21875 0.46875,0.0625 1.5625,0.0937 1.5625,0.0937 l 0.78125,0.6875 1.03125,0.8125 c 0,0 0.14622,1.40989 0.36719,1.63086 0.22097,0.22097 1.54492,2.34375 1.54492,2.34375 l 0.88477,0.61719 1.23828,0.70703 1.41406,0.26562 c 0,0 1.59076,0.57564 2.12109,1.01758 0.53033,0.44194 1.06055,1.89939 1.06055,2.07617 0,0.17677 0.0447,0.70772 -0.0879,1.10547 -0.1326,0.39775 -0.0449,0.70703 -0.0449,0.70703 0,0 -0.92846,1.10521 -0.97266,1.32618 -0.0442,0.22096 -0.0442,0.30951 0,0.83984 0.0442,0.53033 -0.26511,1.63443 -0.35351,2.5625 -0.0884,0.92808 -0.0879,1.01631 -0.0879,1.41406 0,0.39774 -0.0444,0.88423 -0.13281,1.32617 -0.0884,0.44194 0.13354,1.85666 0.17774,2.16602 0.0442,0.30936 0.0881,0.57345 0.2207,0.88281 0.13258,0.30936 0.26536,0.7075 0.48633,0.97266 0.22097,0.26517 0.74973,1.2817 0.9707,1.54687 0.22097,0.26516 0.66281,0.8835 1.06055,1.28125 0.39775,0.39775 0.48678,0.53149 0.75195,0.66406 0.26516,0.1326 1.45845,0.17555 1.90039,0.043 0.44195,-0.13259 0.61838,0.13305 0.92774,0.26563 0.30936,0.13258 1.0615,1.01731 1.23828,1.23828 0.17678,0.22097 0.53025,0.35301 0.70703,0.44141 0.17677,0.0884 -0.17774,1.10546 -0.17774,1.10547 l 0.26563,1.01562 c 0,0 0.0449,0.66355 0.39844,0.75195 0.35356,0.0884 0.52929,0.22071 0.52929,0.22071 l 0.22071,1.10351 0.0898,0.79688 -0.35352,1.50195 0.16016,0.47266 c -1.33926,0.0308 -2.69646,0.0449 -4.07031,0.0449 -11.00534,0 -21.3817,-1.79927 -29.94141,-6.52344 -8.55971,-4.72417 -16.57893,-11.81752 -21.62305,-20.1543 -5.04411,-8.33677 -8.14062,-18.25957 -8.14062,-29.23632 0,-10.83782 2.70639,-21.15932 7.59766,-29.4961 3.20814,-5.30233 6.45688,-8.23073 10.35546,-11.06836 z" />
    </g>
  </g>
  <g
     id="text6"
     style="opacity:1"
     transform="matrix(1.0488464,0,0,0.95342846,-2.925916,95.709914)" />
</svg>
